<svg id="Layer_1" data-name="Layer 1" xmlns="http://www.w3.org/2000/svg" viewBox="0 0 450 450"><defs><style>.cls-1{fill:#ededed;}.cls-2{fill:#fff;}</style></defs><circle class="cls-1" cx="225" cy="225" r="225"/><path class="cls-2" d="M385.89,190.53l-47.12-41.64L316.51,207.7l19.43-4.8a111.85,111.85,0,0,1,2.25,22.32c0,2.49-.07,4.69-.23,6.85-.1,1.9-.27,3.9-.53,6a109.71,109.71,0,0,1-17.94,48.6c-5-1.67-9.8-5.11-14.26-10.33-9.83-11.51-27-43-27.21-43.27l-12.55-19.91a63.54,63.54,0,0,0,54.95-63c0-.55,0-1.07,0-1.61a62.23,62.23,0,0,0-4.12-21c-5.33-14-16.51-26.28-31.48-34.48-14-7.67-34.27-11.89-57.09-11.89l-2.08,0a148.52,148.52,0,0,0-39.44,6.08l-3.88,1.17v213.4l3.06,1.49a95.84,95.84,0,0,0,40.28,9.69l5.56.11V250.72c12.3,20.21,31.85,51.53,38.63,57.76,10.57,9.71,17.09,12.16,27.68,14a51.93,51.93,0,0,0,9.13.79,51.06,51.06,0,0,0,9.89-.94,53.24,53.24,0,0,0,35.68-24.69c.37-.61.75-1.25,1.09-1.89a7.82,7.82,0,0,0,.43-.81l.28-.51A142,142,0,0,0,363.22,274l0-.05s0,0,0-.06l0,0h0c.2-.55.38-1.09.55-1.6a143.34,143.34,0,0,0,7.88-47,145.33,145.33,0,0,0-3.22-30.38ZM314.46,311.59a41.73,41.73,0,0,1-15.08.12c-8.48-1.45-13.14-3-22.18-11.26-6.38-5.86-31.47-46.36-46.77-72.15l-10.14-17.09v90.64a84.5,84.5,0,0,1-27.1-6.87V96.63a139.83,139.83,0,0,1,32.67-4.51l1.83,0c21,0,39.44,3.75,51.85,10.55,12.7,7,22.12,17.18,26.53,28.8a51.36,51.36,0,0,1,3.41,17.5l0,.41a7.3,7.3,0,0,1,0,.81,52.66,52.66,0,0,1-52.65,52.66h-.54l-10.74-.77,22.94,36.37c1.49,2.72,18.11,32.92,28.41,45,6.33,7.42,13.42,12.18,21.06,14.2l.06.16,3.06.56a33,33,0,0,0,6.41.53l1,0,.53,0c1.2-.05,2.4-.15,3.59-.3l.46-.08a35.11,35.11,0,0,0,3.68-.7l2.42-.6A42.33,42.33,0,0,1,314.46,311.59Zm34.46-34.09a27.08,27.08,0,0,1-14.79,9.63l-.87.22c-.46.1-.91.15-1.37.22a120.76,120.76,0,0,0,16.37-48.23c.28-2.3.48-4.56.58-6.6.17-2.3.25-4.76.25-7.52a122,122,0,0,0-3.81-30.3l-1.34-5.23-9.88,2.44,9.31-24.63,19.72,17.44-7.78,1.93,1.36,5.32a133.81,133.81,0,0,1-3.17,76.58c-.15.44-.29.88-.47,1.36A26.76,26.76,0,0,1,348.92,277.5Z"/><path class="cls-2" d="M245.05,387.47l-2.61-19a143,143,0,0,1-14.75.76,144.76,144.76,0,0,1-124-70.7L101,293.91l28.62-17.51,2.81,4.78a111,111,0,0,0,95.3,54.54c3.42,0,6.82-.15,10.18-.46l-2.56-18.59L291.47,345Zm6.71-31.21L253,365.4l19.44-17.76L249,335.77l1.22,8.87-5.36.78a121.46,121.46,0,0,1-118.9-54l-10,6.12A133.08,133.08,0,0,0,246.35,357Z"/><path class="cls-2" d="M158.73,98.77c-2.75,1.51-5.43,3.08-8,4.74-.44.28-.87.56-1.31.87a143.84,143.84,0,0,0-65.7,120.85c0,.74,0,1.48,0,2.25l-19.1,2.05,41.1,47.64,29.94-55.3-18.44,2a110.42,110.42,0,0,1,50.19-91.24l.51-.33c2.2-1.42,4.47-2.77,6.78-4l.3-.18ZM106.28,225.23c0,1.68,0,3.34.11,5l.31,5.74,9.46-1-12.54,23.14L86.44,238.16l8.31-.91v-4.91l0-.24c-.1-2.49-.15-4.73-.15-6.87a132.92,132.92,0,0,1,60.67-111.65l6.28,9.86A121.3,121.3,0,0,0,106.28,225.23Z"/></svg>