<?xml version="1.0" encoding="UTF-8"?>
<svg width="48px" height="48px" viewBox="0 0 48 48" version="1.1" xmlns="http://www.w3.org/2000/svg" xmlns:xlink="http://www.w3.org/1999/xlink">
    <title>90C0868E-B162-4BB4-A36C-8304BEA8DA86</title>
    <defs>
        <polygon id="path-1" points="0 0 48 0 48 48 0 48"></polygon>
    </defs>
    <g id="Climate-Vocabulary-" stroke="none" stroke-width="1" fill="none" fill-rule="evenodd">
        <g id="Cards-Copy-13" transform="translate(-24.000000, -1150.000000)">
            <g id="Group-8-Copy-4" transform="translate(24.000000, 1150.000000)">
                <g id="Group-3">
                    <mask id="mask-2" fill="white">
                        <use xlink:href="#path-1"></use>
                    </mask>
                    <g id="Clip-2"></g>
                    <path d="M48,24 C48,37.2547902 37.2548163,48 24.0000582,48 C10.7450674,48 -0.000116302454,37.2547902 -0.000116302454,24 C-0.000116302454,10.7452098 10.7450674,0 24.0000582,0 C37.2548163,0 48,10.7452098 48,24" id="Fill-1" fill="#E0AB2F" mask="url(#mask-2)"></path>
                </g>
                <path d="M19.1598858,16.5011601 C19.1598858,16.4403712 19.1622056,16.3795824 19.1642934,16.3171694 C19.178444,15.850348 19.2549964,15.387007 19.3920949,14.9396752 C20.1028729,12.6083527 22.0602962,11.1600928 24.5,11.1600928 C27.4444861,11.1600928 29.8401142,13.5561485 29.8401142,16.5011601 C29.8401142,19.4450116 27.4444861,21.8399072 24.5,21.8399072 L21.5606174,21.8399072 C21.564561,21.8359629 21.5689686,21.8322506 21.5729122,21.8283063 C21.9426838,21.4881671 22.2481977,21.0909513 22.4801749,20.6475638 L22.865025,19.9136891 L22.0440578,19.8032483 C20.457566,19.5900232 19.2461813,18.2735499 19.1642934,16.6835267 C19.1622056,16.6227378 19.1598858,16.561949 19.1598858,16.5011601 M21.0138473,20.7445476 C20.9423983,20.825058 20.8665418,20.9020882 20.7867416,20.9756381 C20.184065,21.5329466 19.4004461,21.8399072 18.5799429,21.8399072 L18.5799429,23 L24.5,23 C28.0840471,23 31,20.0846868 31,16.5011601 C31,12.9164733 28.0840471,10 24.5,10 C21.575464,10 19.1350642,11.8060325 18.2827802,14.6006961 C18.1157566,15.1461717 18.0222698,15.7116009 18.0048715,16.2798144 C18.0023198,16.3535963 18,16.4273782 18,16.5011601 C18,16.574942 18.0023198,16.6487239 18.0051035,16.7329466 C18.1009101,18.5851508 19.3178622,20.1552204 21.0138473,20.7445476" id="Fill-4" fill="#FEFEFE"></path>
                <path d="M20.6197034,26.1602326 C21.7414931,26.1609302 22.8635179,26.1613953 23.9853077,26.162093 C24.5382099,26.1623256 25.0911121,26.1625581 25.6437793,26.1630233 L26.4731326,26.1634884 C26.7067996,26.1634884 27.3053069,26.1869767 27.3053069,26.1869767 C27.3053069,26.1869767 26.6872882,27.1223256 26.562462,27.7427907 C26.4416322,28.3434884 26.4446882,28.9609302 26.4484495,29.5732558 C26.4580876,31.2155814 26.4679609,32.857907 26.4775991,34.5002326 C26.4811252,35.0911628 26.4851216,35.6865116 26.6019551,36.2660465 C26.7187886,36.845814 26.9571571,37.4153488 27.3730092,37.8397674 C25.121202,37.8390698 22.8696299,37.8383721 20.6178228,37.8374419 C21.0872725,37.3553488 21.3456227,36.7030233 21.4605755,36.0432558 C21.5755284,35.3834884 21.5578976,34.7093023 21.5416773,34.04 C21.5108821,32.7732558 21.4873744,31.5060465 21.5240465,30.2395349 C21.5447333,29.5237209 21.5842263,28.8032558 21.4814974,28.0944186 C21.3785335,27.3860465 21.1201834,26.6786047 20.6197034,26.1602326 L20.6197034,26.1602326 Z M18,26.1627907 C19.2917507,26.1665116 20.3430172,27.2076744 20.3430172,28.4837209 L20.3430172,35.5139535 C20.3430172,36.7911628 19.2917507,37.8334884 18,37.8372093 L18.0016455,39 L30,39 L30,37.8372093 C28.7637275,37.8372093 27.7347934,36.8823256 27.6567477,35.6544186 C27.6532215,35.6086047 27.651576,35.5611628 27.651576,35.5139535 C27.651576,35.4665116 27.6532215,35.4190698 27.6567477,35.3737209 L27.6586283,28.6697674 L27.6567477,28.624186 C27.6532215,28.5783721 27.651576,28.5309302 27.651576,28.4837209 C27.651576,28.4362791 27.6532215,28.3888372 27.6574529,28.334186 C27.7347934,27.1165116 28.7637275,26.1627907 30,26.1627907 L30,25 L18.0016455,25 L18,26.1627907 Z" id="Fill-6" fill="#FEFEFE"></path>
            </g>
        </g>
    </g>
</svg>