<svg id="Layer_1" data-name="Layer 1" xmlns="http://www.w3.org/2000/svg" viewBox="0 0 450 450"><defs><style>.cls-1{fill:#ededed;}.cls-2{fill:#fff;}</style></defs><circle class="cls-1" cx="225" cy="225" r="225"/><path class="cls-2" d="M249.46,257.46c-.06-.71-.09-1.44-.09-2.17s0-1.47.09-2.17l10.88.42V257Z"/><path class="cls-2" d="M226.41,212H170.76v-10.9a30.45,30.45,0,0,0,20.74-8.13,27.36,27.36,0,0,0,2.14-2.17,42.24,42.24,0,0,1-28.28-37.7c0-.79-.05-1.49-.05-2.18s0-1.39,0-2.08A60.45,60.45,0,0,1,168,133c8-26.27,30.95-43.24,58.44-43.24a61.09,61.09,0,1,1,0,122.18Zm-27.63-10.9h27.63a50.19,50.19,0,1,0,0-100.38c-22.93,0-41.33,13.61-48,35.52a49.57,49.57,0,0,0-2.15,12.95c0,.59,0,1.16,0,1.73s0,1.14,0,1.71a31.3,31.3,0,0,0,27.07,29.33l7.72,1-3.61,6.9A41,41,0,0,1,198.9,201Z"/><path class="cls-2" d="M282.06,360.21H170.76v-10.9a21.83,21.83,0,0,0,21.73-21.79V261.6a21.82,21.82,0,0,0-21.73-21.76v-10.9h111.3v10.9a21.79,21.79,0,0,0-21.73,20.36c0,.51-.05,1-.05,1.4s0,.89.05,1.32v63.29c0,.43-.05.87-.05,1.31s0,.89.05,1.32a21.81,21.81,0,0,0,21.73,20.47Zm-87-10.9h62.68a32.52,32.52,0,0,1-8.26-19.7c0-.62-.08-1.35-.08-2.09s0-1.31.07-1.94v-62c-.05-.64-.07-1.29-.07-1.95s0-1.46.09-2.17a32.29,32.29,0,0,1,8.24-19.59H195a32.49,32.49,0,0,1,8.34,21.76v65.92A32.55,32.55,0,0,1,195,349.31Z"/></svg>