<svg id="Layer_1" data-name="Layer 1" xmlns="http://www.w3.org/2000/svg" viewBox="0 0 450 450"><defs><style>.cls-1{fill:#ededed;}.cls-2{fill:#fff;}</style></defs><circle class="cls-1" cx="225" cy="225" r="225"/><path class="cls-2" d="M312.05,349.58H138V188.35l-21.75,19.81L78.11,148.3,138,110.21l53.92-10.78,1,5.51a32.63,32.63,0,0,0,64.3,0l.95-5.51L312,110.22l59.87,43.52-38.09,54.42L312,190.34Zm-163.19-10.9H301.15V190.34a10.89,10.89,0,0,1,17.8-8.43l12.66,10.37,25.21-36-49.27-35.82-41-8.19a43.54,43.54,0,0,1-83.17,0l-41.29,8.26L93.17,151.65l25.28,39.73,12.19-11.08a10.89,10.89,0,0,1,18.22,8Z"/><rect class="cls-2" x="299.91" y="306.89" width="10.9" height="37.19"/><path class="cls-2" d="M299.09,309.52l2.13-7.46c.11-.4.19-.7.27-1a90.94,90.94,0,0,1,12.08-27.54c14.22-21.44,37.35-34,63.45-34.35l.6,0L385,239l-2.08,7c0,.1-.05.19-.07.28-5.07,24.41-20.64,44.28-42.76,54.56a90,90,0,0,1-32.22,8Zm71.42-59a65.29,65.29,0,0,0-47.86,29.07A77.44,77.44,0,0,0,314,297.32,76.9,76.9,0,0,0,335.45,291,64.38,64.38,0,0,0,370.51,250.52Z"/><path class="cls-2" d="M311.32,309.42,304,309a90.48,90.48,0,0,1-33.29-8.09c-22.11-10.29-37.68-30.17-42.74-54.57a2.1,2.1,0,0,1-.06-.24l-2.1-7.14,7.35.22.6,0a79.56,79.56,0,0,1,23.43,3.84,75.26,75.26,0,0,1,40,30.54A88.14,88.14,0,0,1,308,296.7c.58,1.79,1.11,3.68,1.57,5.56Zm-71.08-58.9A64.37,64.37,0,0,0,275.29,291a76.55,76.55,0,0,0,21.46,6.3,76.15,76.15,0,0,0-8.65-17.69,64.52,64.52,0,0,0-34.29-26.21A68.71,68.71,0,0,0,240.24,250.52Zm-7.43-.46h0Z"/></svg>