<?xml version="1.0" encoding="UTF-8"?>
<svg width="48px" height="48px" viewBox="0 0 48 48" version="1.1" xmlns="http://www.w3.org/2000/svg" xmlns:xlink="http://www.w3.org/1999/xlink">
    <title>2427F019-5E04-4AA4-AE4F-C5291421EB1C</title>
    <defs>
        <polygon id="path-1" points="0 0 48 0 48 48 0 48"></polygon>
    </defs>
    <g id="Climate-Vocabulary-" stroke="none" stroke-width="1" fill="none" fill-rule="evenodd">
        <g id="Cards-Copy-13" transform="translate(-24.000000, -1846.000000)">
            <g id="Group-6-Copy-9" transform="translate(24.000000, 1846.000000)">
                <g id="Group-3">
                    <mask id="mask-2" fill="white">
                        <use xlink:href="#path-1"></use>
                    </mask>
                    <g id="Clip-2"></g>
                    <path d="M48,24 C48,37.2547902 37.2548163,48 24.0000582,48 C10.7450674,48 -0.000116302455,37.2547902 -0.000116302455,24 C-0.000116302455,10.7452098 10.7450674,0 24.0000582,0 C37.2548163,0 48,10.7452098 48,24" id="Fill-1" fill-opacity="0.5" fill="#DEDEE6" mask="url(#mask-2)"></path>
                </g>
                <path d="M35.67605,30.9139774 C34.9689574,31.2326482 34.1959633,31.4518193 33.369263,31.5683177 C33.6080094,30.8956187 33.9194585,30.2782224 34.2991543,29.7258748 C35.4802217,28.0051432 37.3287471,26.9285527 39.446038,26.7041686 C38.8519864,28.6001011 37.5337218,30.0796764 35.67605,30.9139774 L35.67605,30.9139774 Z M31.5137019,31.5685444 C30.6855945,31.4522726 29.9121313,31.2328748 29.2057423,30.9137507 C27.3485395,30.0787698 26.030275,28.5991945 25.4359889,26.7043953 C25.9362305,26.7574315 26.4247459,26.8580644 26.8954374,27.005614 C28.4114064,27.4772739 29.6865184,28.418554 30.5838107,29.7295012 C30.9628029,30.2782224 31.2744865,30.8944854 31.5137019,31.5685444 L31.5137019,31.5685444 Z M14.9112146,19.2072458 C14.486959,19.0256987 13.9918769,19.1036665 13.6494705,19.4051118 L12.3384763,20.5567237 L9.61892545,16.4273759 L14.8821335,13.1905783 L19.3235662,12.3320257 C19.9216047,14.2084663 21.7168929,15.5176003 23.7961907,15.5176003 C25.8754886,15.5176003 27.6703077,14.2084663 28.2683462,12.3320257 L32.6748348,13.1842321 L37.9743941,16.906742 L35.2630517,20.6501037 L33.900931,19.5726067 C33.5517234,19.2960929 33.0634425,19.238297 32.6560728,19.4252837 C32.2489375,19.6118172 31.9862696,20.0138954 31.9867387,20.4490646 L31.9867387,29.7954565 C31.8539976,29.5558868 31.7132826,29.3233433 31.5603724,29.1021323 C30.5157985,27.5763202 29.0270343,26.478198 27.2559022,25.9272103 C26.4519508,25.6754014 25.6043778,25.5409976 24.7364011,25.5280785 C24.7019259,25.5262653 24.6712032,25.5255854 24.6712032,25.5255854 L23.8810888,25.5026937 L24.1064672,26.2440679 C24.1085779,26.2526806 24.1106887,26.26084 24.1127994,26.2689994 C24.6573662,28.8052199 26.3323431,30.8718204 28.7101912,31.9407047 C29.6471182,32.3640881 30.6820766,32.633349 31.7927866,32.7435012 L31.7651126,32.836428 L31.8539976,32.8307617 L31.8539976,35.8667469 L15.6089262,35.8667469 L15.6089262,20.2425859 C15.6089262,19.7944976 15.3350011,19.3883397 14.9112146,19.2072458 L14.9112146,19.2072458 Z M40.2108237,25.5255854 C40.2108237,25.5255854 40.18057,25.5262653 40.1465639,25.5280785 C37.3390662,25.5688756 34.851695,26.8703035 33.322358,29.0989592 C33.265603,29.18146 33.2126004,29.2669073 33.1586597,29.3516746 L33.1579561,20.4492913 L35.4989837,22.3012536 L39.5954303,16.6445072 L33.1567835,12.121694 L27.3560443,11 L27.2533224,11.5729728 C26.9606353,13.2019108 25.5068154,14.3843472 23.7961907,14.3843472 C22.0853315,14.3843472 20.6315116,13.2019108 20.3388245,11.5729728 L20.2358681,11 L14.4372397,12.121014 L8,16.0794672 L12.0971502,22.3008003 L14.4363016,20.2425859 L14.4363016,37 L33.1593632,37 L33.1588942,32.7330753 C34.2402885,32.61907 35.2527326,32.3552487 36.1708976,31.9413847 C38.5492147,30.8731803 40.2241916,28.8072598 40.768993,26.270586 C40.7715727,26.2612933 40.773918,26.251774 40.7764978,26.241348 L41,25.5099465 L40.2108237,25.5255854 Z" id="Fill-4" fill="#FEFEFE"></path>
            </g>
        </g>
    </g>
</svg>