<?xml version="1.0" encoding="UTF-8"?>
<svg width="48px" height="48px" viewBox="0 0 48 48" version="1.1" xmlns="http://www.w3.org/2000/svg" xmlns:xlink="http://www.w3.org/1999/xlink">
    <title>859DB175-0145-47F9-B3E2-C6339512A489</title>
    <defs>
        <polygon id="path-1" points="0 0 48 0 48 48 0 48"></polygon>
    </defs>
    <g id="Clime-it" stroke="none" stroke-width="1" fill="none" fill-rule="evenodd">
        <g id="Cards-Copy-27" transform="translate(-1048.000000, -50.000000)">
            <g id="Group-2-Copy-9" transform="translate(1043.000000, 45.000000)">
                <g id="Group-6-Copy-14" transform="translate(5.000000, 5.000000)">
                    <g id="Group-3">
                        <mask id="mask-2" fill="white">
                            <use xlink:href="#path-1"></use>
                        </mask>
                        <g id="Clip-2"></g>
                        <path d="M48,24 C48,37.2547902 37.2548163,48 24.0000582,48 C10.7450674,48 -0.000116302454,37.2547902 -0.000116302454,24 C-0.000116302454,10.7452098 10.7450674,0 24.0000582,0 C37.2548163,0 48,10.7452098 48,24" id="Fill-1" fill="#4A8778" mask="url(#mask-2)"></path>
                    </g>
                    <path d="M35.67605,31.6798996 C34.9689574,32.0108269 34.1959633,32.2384277 33.369263,32.3594069 C33.6080094,31.6608348 33.9194585,31.0196925 34.2991543,30.4461007 C35.4802217,28.6591872 37.3287471,27.5411894 39.446038,27.3081751 C38.8519864,29.2770281 37.5337218,30.8135101 35.67605,31.6798996 L35.67605,31.6798996 Z M31.5137019,32.3596422 C30.6855945,32.2388985 29.9121313,32.0110623 29.2057423,31.6796642 C27.3485395,30.8125686 26.030275,29.2760866 25.4359889,27.3084105 C25.9362305,27.3634866 26.4247459,27.46799 26.8954374,27.6212145 C28.4114064,28.1110152 29.6865184,29.0884984 30.5838107,30.4498666 C30.9628029,31.0196925 31.2744865,31.6596579 31.5137019,32.3596422 L31.5137019,32.3596422 Z M14.9112146,19.5229091 C14.486959,19.3343794 13.9918769,19.415346 13.6494705,19.7283854 L12.3384763,20.92429 L9.61892545,16.6361211 L14.8821335,13.2748313 L19.3235662,12.3832575 C19.9216047,14.3318688 21.7168929,15.6913542 23.7961907,15.6913542 C25.8754886,15.6913542 27.6703077,14.3318688 28.2683462,12.3832575 L32.6748348,13.268241 L37.9743941,17.1339244 L35.2630517,21.0212616 L33.900931,19.9023223 C33.5517234,19.6151734 33.0634425,19.5551546 32.6560728,19.7493331 C32.2489375,19.943041 31.9862696,20.3605837 31.9867387,20.8124902 L31.9867387,30.5183587 C31.8539976,30.2695748 31.7132826,30.0280872 31.5603724,29.7983681 C30.5157985,28.213871 29.0270343,27.0735133 27.2559022,26.5013338 C26.4519508,26.2398399 25.6043778,26.1002668 24.7364011,26.0868508 C24.7019259,26.0849678 24.6712032,26.0842617 24.6712032,26.0842617 L23.8810888,26.0604896 L24.1064672,26.8303782 C24.1085779,26.8393221 24.1106887,26.8477954 24.1127994,26.8562686 C24.6573662,29.4900361 26.3323431,31.6361211 28.7101912,32.7461164 C29.6471182,33.1857838 30.6820766,33.4654009 31.7927866,33.5797897 L31.7651126,33.6762906 L31.8539976,33.6704064 L31.8539976,36.8231602 L15.6089262,36.8231602 L15.6089262,20.59807 C15.6089262,20.1327475 15.3350011,19.7109681 14.9112146,19.5229091 L14.9112146,19.5229091 Z M40.2108237,26.0842617 C40.2108237,26.0842617 40.18057,26.0849678 40.1465639,26.0868508 C37.3390662,26.129217 34.851695,27.4806998 33.322358,29.795073 C33.265603,29.8807469 33.2126004,29.9694806 33.1586597,30.0575082 L33.1579561,20.8127256 L35.4989837,22.7359172 L39.5954303,16.8616036 L33.1567835,12.164836 L27.3560443,11 L27.2533224,11.5950102 C26.9606353,13.2865997 25.5068154,14.5145144 23.7961907,14.5145144 C22.0853315,14.5145144 20.6315116,13.2865997 20.3388245,11.5950102 L20.2358681,11 L14.4372397,12.1641299 L8,16.2748313 L12.0971502,22.7354464 L14.4363016,20.59807 L14.4363016,38 L33.1593632,38 L33.1588942,33.5689628 C34.2402885,33.4505727 35.2527326,33.1766044 36.1708976,32.7468225 C38.5492147,31.6375333 40.2241916,29.4921544 40.768993,26.8579162 C40.7715727,26.8482661 40.773918,26.8383807 40.7764978,26.8275537 L41,26.0680213 L40.2108237,26.0842617 Z" id="Fill-4" fill="#FEFEFE"></path>
                </g>
            </g>
        </g>
    </g>
</svg>