<svg id="Layer_1" data-name="Layer 1" xmlns="http://www.w3.org/2000/svg" viewBox="0 0 450 450"><defs><style>.cls-1{fill:#ededed;}.cls-2{fill:#fff;}</style></defs><circle class="cls-1" cx="225" cy="225" r="225"/><path class="cls-2" d="M224.75,268.64a79.32,79.32,0,1,1,61.43-29.15A78.95,78.95,0,0,1,224.75,268.64Zm0-147.71a68.44,68.44,0,1,0,53,25.16A68.09,68.09,0,0,0,224.75,120.93Z"/><path class="cls-2" d="M126.78,328a40.68,40.68,0,1,1,31.5-15A40.49,40.49,0,0,1,126.78,328Zm0-70.43a29.78,29.78,0,1,0,23.05,10.95A29.63,29.63,0,0,0,126.78,257.54Z"/><path class="cls-2" d="M323.22,328a40.68,40.68,0,1,1,31.49-15A40.49,40.49,0,0,1,323.22,328Zm0-70.43a29.78,29.78,0,1,0,23,10.95A29.63,29.63,0,0,0,323.22,257.54Z"/><rect class="cls-2" x="272.32" y="212.61" width="10.9" height="58.49" transform="translate(-89.66 267.24) rotate(-45)"/><rect class="cls-2" x="147.19" y="246.54" width="29.81" height="10.9" transform="translate(-130.71 188.42) rotate(-45)"/></svg>