<?xml version="1.0" encoding="UTF-8"?>
<svg width="48px" height="48px" viewBox="0 0 48 48" version="1.1" xmlns="http://www.w3.org/2000/svg" xmlns:xlink="http://www.w3.org/1999/xlink">
    <title>64127634-4BF1-4779-BF91-4353FADF837A</title>
    <defs>
        <polygon id="path-1" points="0 0 48 0 48 48 0 48"></polygon>
    </defs>
    <g id="Climate-Vocabulary-" stroke="none" stroke-width="1" fill="none" fill-rule="evenodd">
        <g id="Cards-Copy-13" transform="translate(-24.000000, -1042.000000)">
            <g id="Group-6-Copy-3" transform="translate(24.000000, 1042.000000)">
                <g id="Group-3">
                    <mask id="mask-2" fill="white">
                        <use xlink:href="#path-1"></use>
                    </mask>
                    <g id="Clip-2"></g>
                    <path d="M48,24 C48,37.2547902 37.2548163,48 24.0000582,48 C10.7450674,48 -0.000116302454,37.2547902 -0.000116302454,24 C-0.000116302454,10.7452098 10.7450674,0 24.0000582,0 C37.2548163,0 48,10.7452098 48,24" id="Fill-1" fill-opacity="0.5" fill="#DEDEE6" mask="url(#mask-2)"></path>
                </g>
                <path d="M37.0981354,33.6944998 C36.4848283,34.4281726 35.5773503,34.8493211 34.6081649,34.8493211 C33.6387439,34.8493211 32.7315015,34.4284028 32.1179588,33.6938093 C31.6509127,33.1366506 31.3937193,32.4315146 31.3937193,31.708428 C31.3937193,30.9860318 31.6511482,30.2808957 32.1189009,29.7221261 C32.7315015,28.9884532 33.6387439,28.5675348 34.6081649,28.5675348 C35.5773503,28.5675348 36.4848283,28.9884532 37.0978999,29.7228165 C37.564946,30.2808957 37.8223749,30.9860318 37.8223749,31.708428 C37.8223749,32.4315146 37.5651816,33.1366506 37.0981354,33.6944998 M23.9730324,28.5882471 C21.7449657,28.5882471 19.6596271,27.6209864 18.2509519,25.9334007 C17.1769578,24.652465 16.5853189,23.0318488 16.5853189,21.3695781 C16.5853189,19.7089183 17.1769578,18.0878418 18.2516585,16.8046047 C19.6596271,15.1179396 21.7449657,14.1506789 23.9730324,14.1506789 C26.2010991,14.1506789 28.2866732,15.1179396 29.6948773,16.8052951 C30.7693425,18.0878418 31.3609814,19.7086881 31.3609814,21.3695781 C31.3609814,23.0311584 30.7698135,24.6520047 29.6962905,25.9340911 C29.6715604,25.9637786 29.644946,25.9916251 29.6197448,26.0206222 L27.8820412,24.3226804 L27.0494603,25.1362104 L28.793052,26.8399055 C27.4630422,27.9618175 25.7642002,28.5882471 23.9730324,28.5882471 M15.8822767,33.6944998 C15.2687341,34.4281726 14.3612561,34.8493211 13.3920707,34.8493211 C12.4224141,34.8493211 11.5154073,34.4284028 10.9018646,33.6938093 C10.4348184,33.1366506 10.1776251,32.4315146 10.1776251,31.708428 C10.1776251,30.9860318 10.435054,30.2808957 10.9028067,29.7221261 C11.5154073,28.9884532 12.4226497,28.5675348 13.3920707,28.5675348 C14.3612561,28.5675348 15.2684985,28.9884532 15.8818057,29.7228165 C16.3490873,30.2808957 16.6065162,30.9860318 16.6065162,31.708428 C16.6065162,32.4312845 16.3493229,33.1364205 15.8822767,33.6944998 M38.0098528,28.994897 C37.1725613,27.9919653 35.9327576,27.4168559 34.6081649,27.4168559 C33.6323847,27.4168559 32.703474,27.7298406 31.9469676,28.2945938 L30.4544455,26.8362234 C30.5055545,26.7782292 30.5583121,26.7218459 30.6080079,26.6622407 C31.8527576,25.1757937 32.5386065,23.2960447 32.5386065,21.3695781 C32.5386065,19.4438018 31.8522866,17.5640528 30.6068302,16.0773757 C28.9746418,14.1216818 26.5567419,13 23.9730324,13 C21.3897939,13 18.9716585,14.1216818 17.3397056,16.0764551 C16.0937782,17.5640528 15.4076938,19.4438018 15.4076938,21.3695781 C15.4076938,23.2969652 16.0937782,25.1767143 17.338999,26.6615503 C17.3969382,26.7308212 17.4579392,26.79664 17.517527,26.8638397 L16.0530324,28.2948239 C15.296526,27.7298406 14.3673798,27.4168559 13.3920707,27.4168559 C12.0674779,27.4168559 10.8274387,27.9919653 9.99085378,28.9942066 C9.35187439,29.7571067 9,30.7211455 9,31.708428 C9,32.6968611 9.35187439,33.6608999 9.9901472,34.421959 C10.8274387,35.4248907 12.0674779,36 13.3920707,36 C14.7161923,36 15.9562316,35.4248907 16.7942296,34.4226494 C17.4325025,33.6599794 17.7841413,32.6959406 17.7841413,31.708428 C17.7841413,30.7699343 17.4628852,29.8544541 16.882787,29.1111156 L18.3468106,27.6805915 C19.8935034,29.0015709 21.8787439,29.738926 23.9730324,29.738926 C26.0798037,29.738926 28.0768204,28.9921354 29.6282237,27.655967 L31.1174485,29.1111156 C30.5373503,29.8549144 30.2160942,30.7699343 30.2160942,31.708428 C30.2160942,32.6968611 30.5679686,33.6608999 31.2062414,34.421959 C32.0435329,35.4248907 33.2835721,36 34.6081649,36 C35.9325221,36 37.1723258,35.4248907 38.0098528,34.4226494 C38.6483611,33.6602095 39,32.6964009 39,31.708428 C39,30.7211455 38.6481256,29.7571067 38.0098528,28.994897" id="Fill-4" fill="#FEFEFE"></path>
            </g>
        </g>
    </g>
</svg>