<?xml version="1.0" encoding="UTF-8"?>
<svg width="48px" height="48px" viewBox="0 0 48 48" version="1.1" xmlns="http://www.w3.org/2000/svg" xmlns:xlink="http://www.w3.org/1999/xlink">
    <title>B519A3B8-0F87-47EC-AD50-E7426388F94A</title>
    <defs>
        <polygon id="path-1" points="0 0 48 0 48 48 0 48"></polygon>
        <polygon id="path-3" points="0 48 48 48 48 0 0 0"></polygon>
    </defs>
    <g id="Climate-Vocabulary-" stroke="none" stroke-width="1" fill="none" fill-rule="evenodd">
        <g id="Cards-Copy-13" transform="translate(-24.000000, -1354.000000)">
            <g id="Group-12-Copy-4" transform="translate(24.000000, 1354.000000)">
                <g id="Group-3">
                    <mask id="mask-2" fill="white">
                        <use xlink:href="#path-1"></use>
                    </mask>
                    <g id="Clip-2"></g>
                    <path d="M48,24 C48,37.2547902 37.2548163,48 24.0000582,48 C10.7450674,48 -0.000116302454,37.2547902 -0.000116302454,24 C-0.000116302454,10.7452098 10.7450674,0 24.0000582,0 C37.2548163,0 48,10.7452098 48,24" id="Fill-1" fill="#4B7B3C" mask="url(#mask-2)"></path>
                </g>
                <path d="M30.2433237,38.8143406 L17.7559896,38.8143406 C16.867389,38.8143406 16.144514,38.0652409 16.144514,37.1444578 L16.144514,33.3380167 L31.855486,33.3380167 L31.855486,37.144932 C31.855486,38.065478 31.1323821,38.8143406 30.2433237,38.8143406 L30.2433237,38.8143406 Z M16.144514,32.1523572 L31.855486,32.1523572 L31.855486,15.2894343 L16.144514,15.2894343 L16.144514,32.1523572 Z M17.7559896,9.18565945 L30.2440104,9.18565945 C31.132611,9.18565945 31.855486,9.93452196 31.855486,10.8553051 L31.855486,14.1037748 L16.144514,14.1037748 L16.144514,10.8553051 C16.144514,9.93452196 16.867389,9.18565945 17.7559896,9.18565945 L17.7559896,9.18565945 Z M30.2440104,8 L17.7559896,8 C16.2365329,8 15,9.28098647 15,10.8553051 L15,37.1444578 C15,38.7190135 16.2365329,40 17.7559896,40 L30.2433237,40 C31.7634671,40 33,38.7192507 33,37.144932 L33,10.8553051 C33,9.28098647 31.763696,8 30.2440104,8 L30.2440104,8 Z" id="Fill-4" fill="#FEFEFE"></path>
                <mask id="mask-4" fill="white">
                    <use xlink:href="#path-3"></use>
                </mask>
                <g id="Clip-7"></g>
                <polygon id="Fill-6" fill="#FEFEFE" mask="url(#mask-4)" points="20 13 24 13 24 11 20 11"></polygon>
                <polygon id="Fill-8" fill="#FEFEFE" mask="url(#mask-4)" points="28 13 30 13 30 11 28 11"></polygon>
                <polygon id="Fill-9" fill="#FEFEFE" mask="url(#mask-4)" points="22 37 26 37 26 35 22 35"></polygon>
                <path d="M26.9646454,27.2960687 C26.3411135,27.5926251 25.6613969,27.8004097 24.9360151,27.9162521 C25.1509519,27.2982636 25.4266161,26.7292947 25.7598996,26.2178812 C26.8281283,24.5753585 28.4907205,23.5388743 30.3986133,23.3013365 C29.842025,25.0977466 28.6432563,26.5000488 26.9646454,27.2960687 L26.9646454,27.2960687 Z M21.0241176,27.2958248 C19.3457458,26.4993171 18.1472162,25.0972588 17.590867,23.3015803 C18.0205015,23.3552336 18.4405726,23.4493708 18.8462987,23.583504 C20.2370521,24.0402888 21.4068916,24.9516633 22.230298,26.2215394 C22.5628642,26.7295386 22.8387675,27.2972881 23.0544216,27.9167398 C22.3273662,27.8006536 21.6471713,27.592869 21.0241176,27.2958248 L21.0241176,27.2958248 Z M31.1840053,22.028046 C31.1840053,22.028046 31.1560324,22.0287777 31.123756,22.0307287 C28.5074564,22.0707248 26.1897732,23.3508438 24.7641134,25.5433128 C24.4652581,26.0018047 24.2113505,26.5017559 23.9952183,27.0317042 C23.778847,26.5019998 23.5242222,26.0025363 23.225845,25.5464833 C22.2522937,24.0454102 20.8646484,22.9652717 19.2137713,22.4231295 C18.464481,22.1753487 17.6745465,22.0434104 16.8654852,22.0307287 C16.8332088,22.0287777 16.8052359,22.028046 16.8052359,22.028046 L16,22 L16.2288037,22.7991903 L16.2350199,22.8240659 C16.7423568,25.3174812 18.3030991,27.3494781 20.5189325,28.4008389 C21.3734198,28.8083602 22.315412,29.0693103 23.3248259,29.1814945 L23.2954185,29.2863623 L23.396073,29.2792898 L23.396073,32 L24.5914946,32 L24.5914946,29.270998 L24.6584382,29.2749 L24.6369206,29.1849088 C25.6542243,29.0749195 26.6057799,28.8122622 27.4691133,28.4015706 C29.6854248,27.3509414 31.2459281,25.3194323 31.7539822,22.8252853 L32,22.0097551 L31.1840053,22.028046 Z" id="Fill-10" fill="#FEFEFE" mask="url(#mask-4)"></path>
                <path d="M24.0008791,18.0988608 C25.0487912,18.0988608 25.9010989,18.9511373 25.9010989,19.999011 C25.9010989,21.0477638 25.0487912,21.9011392 24.0008791,21.9011392 C22.9520879,21.9011392 22.0989011,21.0477638 22.0989011,19.999011 C22.0989011,18.9511373 22.9520879,18.0988608 24.0008791,18.0988608 M24.0008791,23 C25.6545055,23 27,21.6536757 27,19.999011 C27,18.3454452 25.6545055,17 24.0008791,17 C22.3461538,17 21,18.3454452 21,19.999011 C21,21.6536757 22.3461538,23 24.0008791,23" id="Fill-11" fill="#FEFEFE" mask="url(#mask-4)"></path>
            </g>
        </g>
    </g>
</svg>