<svg id="Layer_1" data-name="Layer 1" xmlns="http://www.w3.org/2000/svg" viewBox="0 0 450 450"><defs><style>.cls-1{fill:#ededed;}.cls-2{fill:#fff;}</style></defs><circle class="cls-1" cx="225" cy="225" r="225"/><path class="cls-2" d="M284.48,372.14h-119a26.29,26.29,0,0,1-26.26-26.26V104.12a26.29,26.29,0,0,1,26.26-26.26h119a26.29,26.29,0,0,1,26.26,26.26V345.88A26.29,26.29,0,0,1,284.48,372.14Zm-119-283.37a15.37,15.37,0,0,0-15.36,15.35V345.88a15.37,15.37,0,0,0,15.36,15.35h119a15.37,15.37,0,0,0,15.36-15.35V104.12a15.37,15.37,0,0,0-15.36-15.35Z"/><rect class="cls-2" x="144.71" y="299.97" width="160.58" height="10.9"/><rect class="cls-2" x="144.71" y="133.99" width="160.58" height="10.9"/><rect class="cls-2" x="191.26" y="106.59" width="33.74" height="10.9"/><rect class="cls-2" x="262.4" y="106.59" width="13.99" height="10.9"/><rect class="cls-2" x="208.29" y="329.66" width="33.74" height="10.9"/><rect class="cls-2" x="219.71" y="273.54" width="10.9" height="27.21"/><path class="cls-2" d="M218.79,276.49l2.12-7.46c.09-.36.17-.64.25-.89a83.14,83.14,0,0,1,11-25.12c13-19.61,34.15-31.05,58-31.41l.55,0,7.44-.17-2.24,7.29c-4.64,22.31-18.87,40.47-39.08,49.86a82.4,82.4,0,0,1-29.43,7.33ZM283.58,223a58.71,58.71,0,0,0-42.31,26.08,69,69,0,0,0-7.52,15.19,68.94,68.94,0,0,0,18.5-5.55A57.91,57.91,0,0,0,283.58,223Z"/><path class="cls-2" d="M231.22,276.38l-7.36-.42a82.61,82.61,0,0,1-30.4-7.39C173.25,259.17,159,241,154.39,218.7l-.06-.22-2.08-7.15,7.34.26.55,0a72.74,72.74,0,0,1,21.42,3.51,68.8,68.8,0,0,1,36.59,27.93,80.41,80.41,0,0,1,9.89,21.1c.53,1.65,1,3.38,1.43,5.08ZM166.76,223a57.88,57.88,0,0,0,31.31,35.72,69,69,0,0,0,18.52,5.55,68.28,68.28,0,0,0-7.52-15.16,58.13,58.13,0,0,0-30.86-23.59A61.37,61.37,0,0,0,166.76,223Z"/><path class="cls-2" d="M224.18,219.37a29.77,29.77,0,1,1,29.76-29.78A29.81,29.81,0,0,1,224.18,219.37Zm0-48.63A18.87,18.87,0,1,0,243,189.59,18.89,18.89,0,0,0,224.18,170.74Z"/></svg>