<svg id="Layer_1" data-name="Layer 1" xmlns="http://www.w3.org/2000/svg" viewBox="0 0 450 450"><defs><style>.cls-1{fill:#ededed;}.cls-2{fill:#fff;}</style></defs><circle class="cls-1" cx="225" cy="225" r="225"/><path class="cls-2" d="M376.29,220a156.37,156.37,0,0,0-52.47,9.3V210.67a32.24,32.24,0,1,0-10.92,0h0v23.07h0a158.27,158.27,0,0,0-54.64,40.54c-1,1.14-2,2.29-2.9,3.45-.83,1-1.66,2-2.45,3-.19.24-.41.5-.61.78-.83,1.07-1.63,2.16-2.44,3.25l-.52.72c-.16.2-.31.4-.44.59-.41.57-.83,1.16-1.22,1.75-1,1.35-1.88,2.74-2.77,4.14l-.37.57c-.79,1.2-1.53,2.4-2.27,3.62a2.53,2.53,0,0,0-.13.22A160.42,160.42,0,0,0,230.45,319h0V148.7h0a32.25,32.25,0,1,0-10.9,0V319a164.22,164.22,0,0,0-11-21.46c-.12-.2-.23-.4-.34-.6-.59-1-1.2-2-1.81-2.93-.16-.26-.33-.5-.48-.76-.7-1.13-1.44-2.24-2.19-3.36l-.19-.28a.62.62,0,0,0-.11-.17c-1.55-2.32-3.21-4.61-4.91-6.83a.1.1,0,0,1,0-.07.5.5,0,0,0-.07-.08c-.54-.72-1.11-1.44-1.68-2.16-.28-.35-.56-.72-.85-1.07l-.45-.57-.59-.72c-.61-.76-1.22-1.48-1.86-2.22a158.9,158.9,0,0,0-54.56-41.35h0V210.67h0a32.19,32.19,0,1,0-10.91,0v19.13A155.69,155.69,0,0,0,73.71,220l-6.26,0,.93,7.18q.24,1.83.51,3.66c.19,1.42.43,2.81.67,4.23.18,1,.37,2,.57,3,.15.78.3,1.55.48,2.33.09.42.17.83.26,1.22v0c.17.86.37,1.71.59,2.56.06.32.15.63.24,1,.17.78.37,1.57.59,2.35.28,1.11.56,2.18.89,3.27.13.46.26.92.39,1.35a1,1,0,0,1,.05.16c.15.45.28.93.41,1.41.07.2.13.42.2.61s.17.57.26.88c.24.69.46,1.41.7,2.11s.35,1.11.54,1.66a0,0,0,0,1,0,0c.14.35.24.72.38,1.07s.24.63.34,1l.33.92c0,.13.09.28.15.41.18.46.33.89.51,1.33.24.68.5,1.33.76,2a.59.59,0,0,0,.09.2c.19.48.39,1,.59,1.44.13.3.23.61.37.92s.19.48.3.74a2.3,2.3,0,0,0,.15.32l.13.33c.38.85.75,1.72,1.14,2.6l.13.26c0,.11.09.19.13.28.26.59.55,1.18.81,1.75.15.32.28.63.43.93.53,1.12,1.07,2.21,1.64,3.3l.19.39c.44.87.9,1.74,1.38,2.62a1.08,1.08,0,0,0,.11.21c.5,1,1,1.9,1.55,2.84,1.65,2.94,3.4,5.82,5.23,8.61.57.87,1.13,1.73,1.72,2.58.87,1.3,1.79,2.59,2.71,3.86l1.24,1.7a5.86,5.86,0,0,1,.37.5c.11.13.2.26.28.37.94,1.22,1.88,2.44,2.84,3.64.33.39.65.79,1,1.18.15.22.32.41.5.63.39.48.81,1,1.22,1.44.11.13.22.26.35.39.22.29.46.55.68.83,0,0,0,0,0,0l1,1.14.46.52c.28.33.59.63.85,1q2.72,3,5.56,5.82c.55.57,1.09,1.12,1.66,1.66,0,0,0,0,.06,0,.2.2.42.42.64.61l.45.44,1.38,1.31s0,0,.06,0,.33.31.51.46c.69.66,1.39,1.29,2.11,1.92s1.55,1.37,2.36,2.05l1.24,1c.52.45,1.07.89,1.59,1.33a.83.83,0,0,1,.18.13q2.55,2.06,5.21,4a.69.69,0,0,0,.13.11l1.46,1.05c.46.33.91.68,1.39,1l1.53,1.09,1.31.9a.46.46,0,0,1,.13.08c.92.61,1.83,1.23,2.77,1.84l2.18,1.37.85.52c.65.42,1.33.81,2,1.2.3.2.63.39.93.57a.18.18,0,0,1,.09,0l1.83,1.05,1.22.68,2.49,1.37c.24.11.48.24.74.39l2.88,1.46a1.51,1.51,0,0,0,.22.11c.87.44,1.74.87,2.64,1.29.1,0,.19.11.3.15l.26.13.22.09c.39.17.79.37,1.2.54s.65.31,1,.46l.5.24a.16.16,0,0,0,.09,0c.33.16.63.29.94.42.72.33,1.46.65,2.2,1l.66.26.87.35c.61.26,1.22.5,1.83.74.24.09.5.2.74.28.81.33,1.64.64,2.47.94l.61.22c.89.33,1.81.65,2.72,1l1,.33a8.45,8.45,0,0,1,.85.28l1.53.5s.09,0,.11,0,.2.07.28.09l3,.92.13,0,3.3.92c1.15.3,2.31.58,3.46.87l.11,0c1.11.28,2.23.52,3.36.78l.13,0c1.11.24,2.25.48,3.38.69,0,0,.09,0,.13,0l3.4.63c1.33.22,2.69.43,4,.63,1.09.15,2.18.31,3.27.44l1.13.13,1.24.13,1.12.13,2,.2h.07l.26,0,1.44.11c1.2.08,2.42.17,3.64.24.37,0,.76,0,1.13,0l1.16.07,1.24,0q1.91.06,3.84.06c.37,0,.72,0,1.07,0h.61l3.23-.07c.46,0,.89,0,1.33,0l1,0c2.57-.11,5.15-.27,7.68-.51l0,0,2-.2c2.38-.24,4.76-.52,7.09-.87,1.24-.18,2.46-.37,3.69-.59s2.35-.42,3.53-.66,2.33-.45,3.51-.72,2.31-.52,3.47-.8,2.31-.57,3.46-.87c2.29-.62,4.56-1.29,6.83-2,1.11-.37,2.25-.72,3.36-1.11,3.49-1.2,6.91-2.51,10.29-3.93.94-.39,1.88-.78,2.81-1.22,1.75-.76,3.47-1.57,5.17-2.4.68-.32,1.33-.65,2-1q2.94-1.5,5.77-3.09c.9-.51,1.79-1,2.67-1.53s1.87-1.09,2.81-1.68c.63-.39,1.29-.78,1.9-1.18s1.24-.78,1.85-1.2a157,157,0,0,0,20.8-16.18c.81-.74,1.62-1.48,2.4-2.24l2.36-2.31c.78-.77,1.55-1.55,2.31-2.36s1.5-1.59,2.24-2.4,1.44-1.57,2.14-2.35a.81.81,0,0,0,.18-.2c.69-.79,1.39-1.59,2.07-2.4,1.46-1.72,2.85-3.44,4.23-5.21.65-.83,1.28-1.68,1.94-2.53,1.35-1.83,2.68-3.69,4-5.58.56-.85,1.13-1.7,1.7-2.58s1.2-1.85,1.79-2.81a154.51,154.51,0,0,0,8-14.57c.48-1,1-2,1.42-3,.94-2,1.83-4.07,2.66-6.17.3-.7.59-1.42.85-2.14s.61-1.54.87-2.33l0,0c.11-.33.24-.65.37-1s.24-.68.38-1l.85-2.44c.17-.52.37-1.07.52-1.64.09-.21.15-.43.22-.65.17-.52.35-1.07.5-1.61.28-.92.57-1.84.83-2.75.13-.53.28-1,.43-1.55.27-1,.55-2,.79-3,.13-.48.26-1,.37-1.48.09-.26.15-.55.22-.83.19-.85.39-1.72.59-2.57,0-.05,0-.09,0-.13.19-.83.37-1.68.52-2.53.57-2.73,1.05-5.5,1.46-8.27.2-1.22.35-2.42.5-3.64l1-7.22ZM240.48,353.51h0L368.1,240.87v0c-.44,2-.94,3.92-1.49,5.84s-1,3.58-1.59,5.37-1.13,3.42-1.72,5.1C344.44,309.24,296.85,347.25,240.48,353.51ZM362,231.7l-38.21,33.72V241A143.5,143.5,0,0,1,362,231.7Zm-65-52.78a21.33,21.33,0,1,1,21.32,21.33A21.36,21.36,0,0,1,297,178.92Zm15.87,66.86h0V275l-39,34.4V273.5h0A147.49,147.49,0,0,1,312.9,245.78ZM263,285.56v33.5l-28.76,25.39a145.48,145.48,0,0,1,25.64-54.92C260.92,288.2,262,286.87,263,285.56ZM203.65,116.9A21.34,21.34,0,1,1,225,138.25,21.38,21.38,0,0,1,203.65,116.9ZM187.88,286.69a145.75,145.75,0,0,1,27.87,57.75h0l-30.43-26.85v-34C186.21,284.6,187.06,285.65,187.88,286.69Zm-49.5-40.28a147.73,147.73,0,0,1,36,25.5h0V308l-36-31.8V246.41Zm-26.8-67.49a21.34,21.34,0,1,1,21.33,21.33A21.37,21.37,0,0,1,111.58,178.92Zm15.89,87.63L88,231.7a143.37,143.37,0,0,1,39.5,9.81Zm79.08,86.7c-1.33-.18-2.66-.35-4-.55-1-.17-2-.33-3.05-.52-2.12-.37-4.19-.79-6.26-1.25-1-.21-2-.45-3-.72-1.27-.3-2.53-.63-3.77-1-.42-.1-.83-.21-1.23-.34l-1.15-.33c-.26-.07-.5-.13-.76-.22-.77-.22-1.51-.46-2.25-.7s-1.29-.39-1.92-.61-1.2-.39-1.79-.61c-1.28-.41-2.55-.89-3.81-1.37-.68-.26-1.36-.5-2-.77l-.72-.3q-1.08-.42-2.16-.87c-.74-.31-1.48-.61-2.2-.94-1.9-.83-3.8-1.7-5.65-2.62-.83-.39-1.66-.8-2.46-1.22l-.33-.17-2.64-1.38c-.94-.52-1.88-1-2.81-1.57l-.55-.32c-.35-.2-.72-.4-1.07-.61l-1.07-.64-2.63-1.61c-1.51-.94-3-1.92-4.48-2.92-1.06-.74-2.13-1.46-3.18-2.23l0,0c-.83-.59-1.66-1.18-2.49-1.83s-1.66-1.22-2.46-1.88-1.62-1.26-2.4-1.92a5.22,5.22,0,0,1-.42-.32c-1.46-1.2-2.87-2.42-4.29-3.69-.76-.67-1.53-1.37-2.29-2.07s-1.51-1.39-2.25-2.11-1.46-1.44-2.2-2.19-1.44-1.46-2.14-2.2a2.56,2.56,0,0,1-.3-.28v0c-.61-.66-1.22-1.31-1.81-2s-1.2-1.3-1.79-2c-.79-.87-1.53-1.77-2.29-2.66-.09-.09-.15-.2-.24-.28-1.24-1.49-2.46-3-3.64-4.54s-2.49-3.29-3.66-5l-.2-.26c-.52-.77-1.05-1.53-1.57-2.29-.79-1.16-1.53-2.31-2.27-3.47-.41-.65-.83-1.31-1.24-2-1.27-2.08-2.51-4.21-3.67-6.35-.32-.59-.63-1.16-.93-1.74-.5-.94-1-1.86-1.44-2.77s-.85-1.75-1.27-2.62c-1-2.05-1.89-4.1-2.79-6.19-.63-1.51-1.22-3-1.81-4.56l-.37-1c-.83-2.2-1.59-4.43-2.29-6.67a4.74,4.74,0,0,1-.17-.57c-.22-.72-.46-1.42-.68-2.14s-.41-1.42-.61-2.14a3.1,3.1,0,0,1-.15-.52c-.48-1.74-.94-3.51-1.35-5.3-.05-.17-.09-.35-.14-.54v0L209.63,353.59h0a3.47,3.47,0,0,1-.64-.06Z"/></svg>