<?xml version="1.0" encoding="UTF-8"?>
<svg width="49px" height="49px" viewBox="0 0 49 49" version="1.1" xmlns="http://www.w3.org/2000/svg" xmlns:xlink="http://www.w3.org/1999/xlink">
    <title>64FB89B0-B287-4A09-8B1B-B5D877F96F18</title>
    <defs>
        <polygon id="path-1" points="0 0 47.9998837 0 47.9998837 48 0 48"></polygon>
    </defs>
    <g id="Clime-it" stroke="none" stroke-width="1" fill="none" fill-rule="evenodd">
        <g id="Cards-Copy-27" transform="translate(-897.000000, -50.000000)">
            <g id="Group-2-Copy-19" transform="translate(892.000000, 45.000000)">
                <g id="Group-6-Copy-13" transform="translate(5.256066, 5.179000)">
                    <g id="Group-3" transform="translate(-0.211916, -0.148138)">
                        <mask id="mask-2" fill="white">
                            <use xlink:href="#path-1"></use>
                        </mask>
                        <g id="Clip-2"></g>
                        <path d="M47.9998837,24 C47.9998837,37.2547902 37.254726,48 24,48 C10.7450414,48 -0.000116302172,37.2547902 -0.000116302172,24 C-0.000116302172,10.7452098 10.7450414,0 24,0 C37.254726,0 47.9998837,10.7452098 47.9998837,24" id="Fill-1" fill="#64B445" mask="url(#mask-2)"></path>
                    </g>
                    <path d="M22.2152724,37.4659445 C22.0720345,37.4474251 21.9287966,37.4289057 21.7855587,37.4080714 C21.675195,37.389552 21.5671795,37.3733475 21.4568159,37.3525131 C21.2290441,37.3131594 21.0059686,37.2691758 20.7828931,37.2205623 C20.6725295,37.1974131 20.564514,37.1719489 20.4564985,37.1441698 C20.3203051,37.1117608 20.1841116,37.0770369 20.0502664,37.042313 C20.0056513,37.0307384 19.9610362,37.0191637 19.9187692,37.0052742 C19.8765023,36.9936995 19.8365835,36.9821249 19.7943166,36.9705503 C19.7661387,36.9636055 19.7403089,36.9566607 19.7121309,36.947401 C19.6299452,36.9242517 19.5501077,36.8987876 19.4702701,36.8733234 C19.3998253,36.852489 19.3317285,36.8316547 19.2636318,36.8085054 C19.1978833,36.7876711 19.1344829,36.7668367 19.0710825,36.7436875 C18.9325409,36.6997039 18.7963474,36.6487755 18.660154,36.5978471 C18.5873609,36.570068 18.5145679,36.5446038 18.4417748,36.5168247 C18.4159451,36.5052501 18.3901153,36.4959904 18.3642855,36.4844157 C18.2867961,36.4543217 18.2093067,36.4242276 18.1318174,36.3918187 C18.0519798,36.3594097 17.9721423,36.3270007 17.8946529,36.2922768 C17.6903628,36.2043096 17.4860726,36.1117126 17.2864788,36.0144857 C17.1972486,35.972817 17.1080184,35.9288334 17.0211364,35.8848498 C17.0093955,35.877905 16.9976547,35.8732751 16.9859139,35.8663304 C16.8919874,35.8177169 16.7957127,35.7691034 16.7017862,35.72049 C16.6008152,35.6649318 16.4998442,35.6093735 16.3988732,35.5538153 C16.3800879,35.5422407 16.3589545,35.530666 16.3401691,35.5190914 C16.3025985,35.4982571 16.2626798,35.4774227 16.2251092,35.4542735 C16.1851904,35.4311242 16.1476198,35.4079749 16.1100492,35.3871406 C16.0137745,35.3292674 15.919848,35.2737092 15.8259215,35.215836 C15.6638983,35.1162942 15.501875,35.0121225 15.3445481,34.9056359 C15.2294882,34.8269284 15.1144282,34.7505358 15.0017164,34.6695134 C14.9993682,34.6695134 14.9993682,34.6695134 14.99702,34.6671985 C14.9077898,34.6046954 14.8185597,34.5421924 14.7293295,34.4727446 C14.6400993,34.4102416 14.5508691,34.3431088 14.4639871,34.273661 C14.3771051,34.208843 14.290223,34.1393952 14.2056892,34.0699474 C14.1916002,34.0606877 14.1751631,34.0467982 14.1610741,34.0352235 C14.0037472,33.9079026 13.8511166,33.7782667 13.698486,33.644001 C13.6163003,33.5722382 13.5341146,33.4981606 13.4519289,33.424083 C13.3697432,33.3523202 13.2899057,33.2759277 13.2100682,33.1995351 C13.1302306,33.1231425 13.0527412,33.0467499 12.9729037,32.9680424 C12.8954143,32.8916499 12.817925,32.8129424 12.7427838,32.7342349 C12.7310429,32.7249752 12.7216503,32.7157155 12.7099095,32.7041408 L12.7099095,32.7018259 C12.6441609,32.6323781 12.5784124,32.5629303 12.515012,32.4934825 C12.4492634,32.4240347 12.385863,32.3545869 12.3224626,32.2828242 C12.2379288,32.1902272 12.1580912,32.0953152 12.0759055,32.0004032 C12.0665129,31.9911435 12.0594684,31.9795688 12.0500757,31.9703091 C11.9162305,31.8128941 11.7847333,31.6508493 11.6579326,31.4888044 C11.5217391,31.315185 11.390242,31.1392505 11.2634412,30.9610012 C11.2563967,30.9517415 11.2493522,30.9424818 11.2423077,30.9332221 C11.1859518,30.8521997 11.1295959,30.7711772 11.07324,30.6901548 C10.9887062,30.5674637 10.9088686,30.4447726 10.8290311,30.3220815 C10.784416,30.2526337 10.7398009,30.1831859 10.6951858,30.1114232 C10.5589924,29.8915052 10.4251471,29.6646424 10.3006945,29.4377796 C10.265472,29.3752766 10.2325977,29.3150885 10.1997235,29.2525855 C10.1457157,29.1530436 10.0940561,29.0558167 10.0447447,28.9585898 C9.99778146,28.8659928 9.95316637,28.7733957 9.90855128,28.6807986 C9.80288395,28.4631956 9.70426111,28.2455925 9.60798644,28.0233595 C9.53988972,27.8636296 9.47648932,27.7015848 9.41308893,27.5395399 C9.39899995,27.504816 9.38725914,27.472407 9.37317016,27.4376831 C9.28393997,27.2038756 9.20175428,26.9677531 9.12661307,26.7293156 C9.11956858,26.7107962 9.11252409,26.6899619 9.10782777,26.6691276 C9.08434614,26.592735 9.05851635,26.5186573 9.03503472,26.4422648 C9.01390125,26.3658722 8.99041963,26.2917946 8.96928616,26.215402 C8.96224167,26.1968826 8.95754535,26.1783632 8.95284902,26.1598437 C8.90118944,25.9746496 8.85187802,25.7871406 8.80726293,25.5973166 C8.8025666,25.5787972 8.79787028,25.5602778 8.79317395,25.5394435 C8.79317395,25.5389805 8.79293914,25.538286 8.79293914,25.537823 L22.5470678,37.5029834 C22.546833,37.5029834 22.5465982,37.5029834 22.5463634,37.5029834 C22.5228818,37.5029834 22.5017483,37.5006684 22.4782667,37.4960386 C22.3913847,37.4867789 22.3021545,37.4775192 22.2152724,37.4659445 L22.2152724,37.4659445 Z M13.7003645,28.2629544 L9.44619802,24.5625445 C10.9112168,24.7106998 12.3339686,25.0579388 13.7003645,25.6040299 L13.7003645,28.2629544 Z M11.9890235,18.9604225 C11.9890235,17.7103622 13.019867,16.6941095 14.2855267,16.6941095 C15.5535346,16.6941095 16.5843781,17.7103622 16.5843781,18.9604225 C16.5843781,20.2081678 15.5535346,21.2244205 14.2855267,21.2244205 C13.019867,21.2244205 11.9890235,20.2081678 11.9890235,18.9604225 L11.9890235,18.9604225 Z M14.8749156,26.1251198 C16.2932059,26.8265426 17.6058289,27.7432534 18.7540805,28.8312689 C18.7543153,28.8315004 18.7543153,28.8315004 18.7545501,28.8317319 L18.7545501,32.6592313 L14.8744459,29.2840685 L14.8744459,26.1248884 C14.8744459,26.1248884 14.8746808,26.1251198 14.8749156,26.1251198 L14.8749156,26.1251198 Z M20.2052451,30.400789 C21.661106,32.2110615 22.6802087,34.2991252 23.2061971,36.5307143 L23.2061971,36.5316402 L19.9286315,33.6805768 L19.9286315,30.0702175 C20.0246714,30.179019 20.1162497,30.289904 20.2052451,30.400789 L20.2052451,30.400789 Z M21.9029668,12.3767716 C21.9029668,11.1290263 22.9361584,10.1127736 24.2018182,10.1127736 C25.4698261,10.1127736 26.4983214,11.1290263 26.4983214,12.3767716 C26.4983214,13.6268319 25.4698261,14.6430846 24.2018182,14.6430846 C22.9361584,14.6430846 21.9029668,13.6268319 21.9029668,12.3767716 L21.9029668,12.3767716 Z M28.2970141,30.2804128 L28.2970141,33.8372973 L25.2000222,36.5318717 C25.6957193,34.4188068 26.6324015,32.4400077 27.9612268,30.7017294 C28.0692423,30.5605189 28.1819541,30.4193084 28.2970141,30.2804128 L28.2970141,30.2804128 Z M33.6672624,26.057987 C33.6674972,26.0577555 33.6679668,26.0577555 33.6684364,26.057524 L33.6684364,29.1641553 L29.4710955,32.8159518 L29.4710955,29.0002585 L29.4710955,29.0002585 C30.6968364,27.8011266 32.1221712,26.8033933 33.6672624,26.057987 L33.6672624,26.057987 Z M31.9577998,18.9604225 C31.9577998,17.7103622 32.9886433,16.6941095 34.254303,16.6941095 C35.522311,16.6941095 36.5508063,17.7103622 36.5508063,18.9604225 C36.5508063,20.2081678 35.522311,21.2244205 34.254303,21.2244205 C32.9886433,21.2244205 31.9577998,20.2081678 31.9577998,18.9604225 L31.9577998,18.9604225 Z M38.9569687,24.5625445 L34.8425178,28.1425782 L34.8425178,25.5482402 C36.1617157,25.0347895 37.5393828,24.7060699 38.9569687,24.5625445 L38.9569687,24.5625445 Z M25.8690137,37.4937237 C25.8683093,37.4937237 25.8676048,37.4937237 25.8669004,37.4939551 L39.6111668,25.5371285 C39.610932,25.537823 39.6106972,25.538749 39.6104624,25.5394435 C39.5634991,25.7477868 39.5094914,25.9561302 39.4507873,26.1598437 C39.3967796,26.3519826 39.3404236,26.5394917 39.2793714,26.7293156 C39.2206673,26.9121948 39.1572669,27.0927591 39.0938666,27.2710084 C37.0627057,32.794423 31.9390145,36.8293398 25.8690137,37.4937237 L25.8690137,37.4937237 Z M40.4933716,23.3217439 C38.5425179,23.3333185 36.6454372,23.666668 34.8425178,24.3097545 L34.8425178,22.3307239 C36.4761347,22.0570996 37.7248876,20.6498558 37.7248876,18.9604225 C37.7248876,17.0714425 36.1680557,15.5366463 34.254303,15.5366463 C32.3405504,15.5366463 30.7837185,17.0714425 30.7837185,18.9604225 C30.7837185,20.6503188 32.0329411,22.0577941 33.6672624,22.3309554 C33.6674972,22.3309554 33.6679668,22.3309554 33.6684364,22.3311869 L33.6684364,24.7796846 C33.6679668,24.7799161 33.6674972,24.7799161 33.6672624,24.7801476 C31.4271151,25.7663062 29.3983024,27.2501741 27.7827664,29.0835959 C27.6770991,29.203972 27.5714318,29.3266631 27.4704608,29.4493542 C27.3812306,29.5558408 27.2920004,29.6623275 27.2074665,29.771129 C27.1863331,29.7965932 27.1628514,29.8243723 27.141718,29.8544664 C27.0524878,29.9678978 26.9656058,30.0836441 26.8787237,30.1993904 C26.8599384,30.2248546 26.8411531,30.2503188 26.8223678,30.275783 C26.8059307,30.2966173 26.7894935,30.3174517 26.7754046,30.338286 C26.7307895,30.3984741 26.6861744,30.4609771 26.6439075,30.5234801 C26.5405883,30.6670055 26.4419655,30.8151608 26.3456908,30.9633161 C26.3316018,30.9841505 26.319861,31.0026699 26.305772,31.0235042 C26.2212382,31.1508252 26.1414006,31.2781461 26.0615631,31.407782 C26.0566319,31.4158843 26.0521704,31.423755 26.0472393,31.4318572 C25.5637526,32.2024963 25.1380307,33.0027663 24.7888589,33.8268802 C24.7888589,33.8271116 24.788624,33.8271116 24.788624,33.8273431 L24.788624,15.7519344 C24.788624,15.7519344 24.7888589,15.7519344 24.7888589,15.7519344 C26.4231802,15.4764582 27.6724028,14.0689829 27.6724028,12.3767716 C27.6724028,10.4901066 26.1155708,8.95531034 24.2018182,8.95531034 C22.2880655,8.95531034 20.7288854,10.4901066 20.7288854,12.3767716 C20.7288854,14.0689829 21.9804562,15.4764582 23.6145426,15.7519344 L23.6145426,33.8264172 C23.2813383,33.044898 22.8795677,32.2837502 22.4263723,31.5480666 C22.4136922,31.5267692 22.4019514,31.5052404 22.3890365,31.4841746 C22.3256361,31.3800029 22.2598875,31.2758312 22.194139,31.1739744 C22.1777018,31.1461953 22.1589165,31.1207311 22.1424794,31.092952 C22.0673382,30.9725758 21.9875007,30.8545146 21.9076631,30.7364533 C21.9006186,30.7271936 21.8935741,30.715619 21.8865297,30.7063593 C21.8841815,30.6994145 21.8794852,30.6947847 21.8747888,30.6878399 C21.7080693,30.4424577 21.5296089,30.1993904 21.3464522,29.9632679 C21.344104,29.960953 21.3417559,29.9586381 21.3417559,29.9563231 C21.3394077,29.9540082 21.3370596,29.9493783 21.3347114,29.9470634 C21.2760073,29.8706708 21.2149551,29.7942783 21.1539029,29.7178857 C21.1233767,29.6808469 21.0928506,29.6414931 21.0623245,29.6044543 C21.0458874,29.58362 21.0294502,29.5651006 21.0130131,29.5442662 C20.9918796,29.518802 20.9707462,29.4933378 20.9496127,29.4678736 C20.8838641,29.3868512 20.8181156,29.3104586 20.7500189,29.2317511 C19.1462237,27.3705503 17.1221074,25.8589033 14.8749156,24.8426506 C14.8746808,24.8426506 14.8744459,24.8424191 14.8744459,24.8424191 L14.8744459,22.3309554 C14.8744459,22.3309554 14.8746808,22.3309554 14.8749156,22.3309554 C16.511585,22.0554791 17.7584595,20.6503188 17.7584595,18.9604225 C17.7584595,17.0714425 16.2016275,15.5366463 14.2855267,15.5366463 C12.371774,15.5366463 10.8149421,17.0714425 10.8149421,18.9604225 C10.8149421,20.6500873 12.0639299,22.0573311 13.7003645,22.3330388 L13.7003645,24.3632293 C11.8500123,23.6828724 9.90831646,23.3333185 7.91026474,23.3217439 L7.23634202,23.3171141 L7.33731302,24.0787249 C7.35375016,24.2083607 7.37253547,24.3379966 7.39132077,24.4676325 C7.41245423,24.6181027 7.43828402,24.766258 7.46411381,24.9167282 C7.48289912,25.0232149 7.50403258,25.1273865 7.52516605,25.2338732 C7.54160319,25.3172105 7.55804033,25.3982329 7.57682563,25.4815703 C7.58621828,25.5255539 7.59561093,25.5695375 7.60500358,25.6112062 L7.60500358,25.6135211 C7.62378888,25.7038032 7.64492235,25.7940854 7.66840398,25.8843675 C7.67544847,25.9190914 7.68484112,25.9515004 7.69423377,25.9862243 C7.71301907,26.0695616 7.73415254,26.152899 7.75763416,26.2362363 C7.78816028,26.3542976 7.8186864,26.467729 7.85390884,26.5834753 C7.86799781,26.6320887 7.88208679,26.6807022 7.89617577,26.7270007 C7.89852393,26.7316306 7.89852393,26.7385754 7.90087209,26.7432052 C7.91730923,26.7918187 7.93139821,26.842747 7.94548719,26.8936754 C7.95253167,26.9145098 7.95957616,26.937659 7.96662065,26.9584934 C7.9760133,26.9885874 7.98540595,27.0186815 7.9947986,27.0510904 C8.0206284,27.1251681 8.04411002,27.2015606 8.06993981,27.2756383 C8.08872512,27.3358264 8.10751042,27.3936995 8.12864388,27.4515727 C8.12864388,27.4515727 8.13099205,27.4515727 8.13099205,27.4538876 C8.14508102,27.4909265 8.15682184,27.5302802 8.17091081,27.567319 C8.18265163,27.6020429 8.1967406,27.6344519 8.20848142,27.6691758 C8.22022223,27.7015848 8.23196305,27.7339937 8.24370386,27.7664027 C8.24840019,27.7802923 8.25309651,27.7964967 8.260141,27.8103863 C8.2789263,27.8589998 8.29536344,27.9052983 8.31414874,27.9515968 C8.33997853,28.0233595 8.36815649,28.0928073 8.39633444,28.1622551 C8.3986826,28.1691999 8.40103077,28.1761447 8.40572709,28.1830895 C8.42686056,28.2340178 8.44799402,28.2849462 8.46912749,28.3358746 C8.48321646,28.3682836 8.49495728,28.4006925 8.50904625,28.4331015 C8.51843891,28.4585657 8.53017972,28.4840299 8.54192053,28.511809 C8.54661686,28.5233837 8.55131319,28.5349583 8.55835767,28.5465329 C8.563054,28.5581075 8.56775032,28.5696822 8.57244665,28.5812568 C8.61236542,28.6715389 8.65228418,28.764136 8.69455112,28.8567331 C8.69924744,28.8659928 8.70394377,28.8752525 8.70864009,28.8845122 C8.71333642,28.8960868 8.71803274,28.9053465 8.72272907,28.9146062 C8.75090702,28.9771092 8.78143314,29.0396122 8.80961109,29.0998003 C8.82604823,29.1345242 8.84013721,29.1669332 8.85657435,29.1993422 C8.91293025,29.3174034 8.97163432,29.4331497 9.03268656,29.5488961 C9.03973104,29.5627856 9.04677553,29.5766752 9.05382002,29.5905647 C9.10078328,29.6831618 9.1500947,29.7757589 9.20175428,29.8683559 C9.20410244,29.8753007 9.20879877,29.8822455 9.21349509,29.8915052 C9.26750284,29.9933619 9.32385874,30.0929038 9.38021465,30.1924456 C9.55867502,30.5049607 9.74652804,30.810531 9.94377372,31.1068416 C10.004826,31.1994386 10.0658782,31.2897208 10.1292786,31.3800029 C10.2232051,31.5188985 10.3218279,31.6554791 10.4204508,31.7897449 L10.554296,31.9703091 C10.568385,31.9888286 10.582474,32.005033 10.5942148,32.0235524 C10.6059556,32.037442 10.6153483,32.0513316 10.6247409,32.0629062 C10.7257119,32.1925421 10.8266829,32.322178 10.9300021,32.4494989 C10.9652245,32.4911676 11.000447,32.5328363 11.0333213,32.5745049 C11.0497584,32.5976542 11.0685437,32.6184885 11.087329,32.6416378 C11.1295959,32.6925662 11.174211,32.7434946 11.2188261,32.794423 C11.2305669,32.8083125 11.2423077,32.8222021 11.2563967,32.8360916 C11.2798783,32.8661857 11.3057081,32.8939648 11.3291898,32.9240588 C11.3291898,32.9240588 11.3338861,32.9263738 11.3338861,32.9286887 C11.3691085,32.9680424 11.4066791,33.0097111 11.4419016,33.0490649 C11.4583387,33.0675843 11.4747759,33.0861037 11.491213,33.1046231 C11.5217391,33.139347 11.5546134,33.171756 11.5827913,33.2064799 C11.7776889,33.4171382 11.9772827,33.6231666 12.1815729,33.8245652 C12.2402769,33.8847533 12.298981,33.9426265 12.3600332,34.0004996 C12.3623814,34.0004996 12.3647296,34.0028146 12.3670777,34.0051295 C12.3882112,34.0259638 12.4116928,34.0491131 12.4351744,34.0699474 C12.4516116,34.083837 12.4680487,34.1000415 12.4844859,34.116246 C12.5337973,34.1625445 12.5831087,34.208843 12.6324201,34.2551415 C12.6347683,34.2551415 12.6371164,34.2574565 12.6394646,34.2597714 C12.6559017,34.2759759 12.674687,34.2921804 12.6934723,34.3083849 C12.7686136,34.3778327 12.8437548,34.4449655 12.9212441,34.5120984 C13.005778,34.5838611 13.0879637,34.6579388 13.1748457,34.7297015 C13.2194608,34.7667403 13.2640759,34.8037791 13.308691,34.8408179 C13.3650469,34.8894314 13.423751,34.9357299 13.4801069,34.9820285 C13.4871514,34.9866583 13.4941959,34.9912882 13.4988922,34.995918 C13.6820489,35.1417584 13.8699019,35.2852838 14.0601031,35.4264943 C14.0647994,35.4311242 14.0694957,35.4334391 14.0741921,35.438069 C14.1258516,35.4751078 14.1775112,35.5121466 14.231519,35.5491854 C14.2808304,35.5839093 14.3301418,35.6209482 14.3818014,35.6556721 C14.4358091,35.6950258 14.492165,35.7343796 14.5461728,35.7714184 C14.593136,35.8038273 14.6400993,35.8339214 14.6870625,35.8663304 C14.6917589,35.8686453 14.6964552,35.8709602 14.7011515,35.8755901 C14.7997744,35.940408 14.8983972,36.0052259 14.9993682,36.0700439 C15.0768576,36.1186573 15.1543469,36.1672708 15.2341845,36.2158843 C15.2647106,36.2344037 15.2952367,36.2529231 15.3257628,36.2714425 C15.3962077,36.3154261 15.4690008,36.3570948 15.5394456,36.3987634 C15.5723199,36.4195978 15.6075424,36.4404321 15.6404166,36.4589515 C15.6427648,36.4589515 15.6474611,36.4612665 15.6498093,36.4635814 C15.7155578,36.5006202 15.7813064,36.537659 15.847055,36.5746979 C15.8893219,36.5978471 15.933937,36.6233113 15.9785521,36.6464606 C16.0654341,36.695074 16.1546643,36.7436875 16.2462426,36.7923009 C16.2720724,36.8038756 16.2979022,36.8177651 16.3260802,36.8339696 C16.4293993,36.884898 16.5327185,36.9381413 16.6360377,36.9890697 C16.6430821,36.9936995 16.6524748,36.9960145 16.6595193,37.0006443 C16.7534458,37.0469429 16.8473723,37.0932414 16.943647,37.137225 C16.9553878,37.1418548 16.9647805,37.1487996 16.9765213,37.1534295 C16.9859139,37.1580593 16.9953066,37.1626892 17.0046992,37.167319 C17.0117437,37.169634 17.0211364,37.1742638 17.0281808,37.1765787 C17.0704478,37.1950981 17.1127147,37.2159325 17.1573298,37.2344519 C17.1925522,37.2506564 17.2277747,37.2668609 17.2653453,37.2830653 C17.2841306,37.2923251 17.3005677,37.2992698 17.319353,37.3085295 C17.3217012,37.3108445 17.3263975,37.3108445 17.3287457,37.3108445 C17.3639681,37.327049 17.3968424,37.3409385 17.4297167,37.3548281 C17.5072061,37.389552 17.5870436,37.4242759 17.6668811,37.4566848 C17.6903628,37.4659445 17.7138444,37.4752042 17.737326,37.4844639 C17.7678521,37.4960386 17.7983782,37.5076132 17.8312525,37.5215028 C17.8970011,37.5492819 17.9627496,37.5747461 18.0284982,37.6002103 C18.054328,37.60947 18.0825059,37.6210446 18.1083357,37.6303043 C18.1952178,37.6650282 18.2844479,37.6974372 18.3736781,37.7298462 C18.3948116,37.7367909 18.4182932,37.7460506 18.4394267,37.7529954 C18.5357014,37.7877193 18.6343242,37.8224432 18.732947,37.8548522 C18.7681695,37.8664268 18.8033919,37.8780014 18.8386144,37.8895761 C18.8691405,37.8988358 18.8996666,37.9080955 18.9301927,37.9196701 C18.9842004,37.9381895 19.0405564,37.954394 19.0945641,37.9729134 C19.0992604,37.9729134 19.1039567,37.9729134 19.1063049,37.9752284 C19.1180457,37.9775433 19.1274384,37.9821731 19.136831,37.9844881 C19.2448465,38.016897 19.352862,38.049306 19.4608775,38.081715 C19.4655738,38.0840299 19.4702701,38.0840299 19.4749665,38.0863448 C19.5923746,38.1187538 19.7121309,38.1511628 19.829539,38.1835717 C19.9539917,38.2159807 20.0784443,38.2460748 20.2028969,38.2761688 C20.2075933,38.2761688 20.2099414,38.2784837 20.2146377,38.2784837 C20.334394,38.3085778 20.4541504,38.334042 20.5762548,38.3618211 C20.5809511,38.3618211 20.5856475,38.364136 20.5903438,38.364136 C20.7101001,38.3896002 20.8322046,38.4150644 20.954309,38.4382136 C20.9590054,38.4382136 20.9637017,38.4405286 20.968398,38.4405286 C21.0905025,38.4636778 21.2126069,38.4868271 21.3347114,38.5076614 C21.4779493,38.5308107 21.6235354,38.55396 21.7667733,38.5747943 C21.8841815,38.5909988 22.0015896,38.6072033 22.1189978,38.6210928 C22.1612647,38.6257227 22.2011835,38.6303525 22.2411022,38.6349824 C22.2857173,38.6396122 22.3303324,38.6442421 22.3749475,38.648872 C22.4148663,38.6535018 22.454785,38.6581317 22.4947038,38.6627615 C22.5651487,38.6697063 22.6379417,38.6766511 22.7107348,38.6835959 L22.7154311,38.6835959 L22.7177793,38.6835959 L22.7459572,38.6859108 C22.7976168,38.6905406 22.8492764,38.6951705 22.900936,38.6974854 C23.0300849,38.7067451 23.161582,38.7160048 23.2930792,38.7229496 C23.3329979,38.7252645 23.3752649,38.7275795 23.4151836,38.7275795 C23.4574506,38.7298944 23.4973693,38.7322093 23.5396363,38.7345242 C23.5842513,38.7368392 23.6288664,38.7368392 23.6734815,38.7391541 C23.809675,38.7437839 23.9482166,38.7460989 24.0867582,38.7460989 C24.1266769,38.7484138 24.1642476,38.7484138 24.2018182,38.7484138 L24.2652186,38.7484138 L24.2675667,38.7484138 C24.3826267,38.7460989 24.5000348,38.7437839 24.6150948,38.741469 C24.6644062,38.741469 24.7113695,38.7391541 24.7583327,38.7368392 C24.7935552,38.7368392 24.8287776,38.7345242 24.8640001,38.7345242 C25.1410833,38.7229496 25.4181665,38.7067451 25.6905534,38.6812809 L25.6929015,38.6835959 C25.7656946,38.6766511 25.8384876,38.6697063 25.9089325,38.6627615 C26.1648822,38.6372973 26.420832,38.6072033 26.6720854,38.5701645 C26.8059307,38.551645 26.9374278,38.5308107 27.0689249,38.5076614 C27.1957257,38.4868271 27.3225265,38.4636778 27.4493273,38.4382136 C27.5761281,38.4150644 27.7005807,38.3896002 27.8273815,38.3618211 C27.9518341,38.334042 28.0762868,38.3062628 28.2007394,38.2761688 C28.325192,38.2460748 28.4496446,38.2159807 28.5740973,38.1835717 C28.8206544,38.1187538 29.0648633,38.0469911 29.3090722,37.9729134 C29.4288285,37.9335597 29.550933,37.8965209 29.6706893,37.8548522 C30.0463953,37.7275312 30.4150569,37.5886356 30.7790221,37.4381654 C30.8799931,37.3964967 30.9809641,37.3548281 31.0819351,37.3085295 C31.2697881,37.2275071 31.455293,37.1418548 31.6384497,37.0538876 C31.7112428,37.0191637 31.7816876,36.9844398 31.8521325,36.9497159 C32.0634672,36.8432293 32.2701055,36.7344278 32.4743957,36.6209964 C32.5706703,36.5677531 32.666945,36.5145098 32.7608715,36.4589515 C32.8641907,36.4010784 32.9628135,36.3432052 33.0637845,36.2807022 C33.1318812,36.2390335 33.2023261,36.1973648 33.2680747,36.1556962 C33.3361714,36.1140275 33.40192,36.0723588 33.4676685,36.0283752 C34.2636957,35.5167765 35.0127596,34.9426747 35.7078158,34.3106998 C35.7946978,34.2319923 35.8815799,34.1532848 35.9661137,34.0722624 C36.0506476,33.9912399 36.1351814,33.9102175 36.2197153,33.8268802 C36.3042492,33.7458577 36.3864349,33.6625204 36.4686206,33.5768681 C36.5508063,33.4935307 36.6306438,33.4078785 36.7104813,33.3222262 C36.7879707,33.2388888 36.8654601,33.1555515 36.9406013,33.0722141 C36.9499939,33.0652694 36.9546903,33.0583246 36.9593866,33.0513798 C37.0345278,32.9680424 37.109669,32.8823902 37.182462,32.7967379 C37.339789,32.6138587 37.4900714,32.4309795 37.6380056,32.2434705 C37.7084505,32.1555033 37.7765472,32.0652211 37.8469921,31.974939 C37.9925782,31.7804852 38.1358161,31.5837164 38.2743577,31.3823178 C38.33541,31.2920357 38.3964622,31.2017536 38.4575144,31.1091565 C38.523263,31.0096147 38.5866634,30.9123878 38.6500638,30.810531 C38.9647176,30.3128218 39.2535416,29.7965932 39.5141877,29.2641601 C39.5658473,29.1576735 39.6175069,29.048872 39.6668183,28.9423853 C39.7677893,28.7270972 39.8640639,28.5094941 39.9532941,28.2872612 C39.9861684,28.2131835 40.0166945,28.1367909 40.0448725,28.0603984 C40.0777468,27.9793759 40.110621,27.8960386 40.138799,27.8127012 L40.1411472,27.8103863 C40.152888,27.7756624 40.1669769,27.7409385 40.1810659,27.7038997 C40.1951549,27.6668609 40.2068957,27.632137 40.2209847,27.5950981 C40.2515108,27.5094459 40.2820369,27.4237936 40.312563,27.3358264 C40.3313483,27.2802681 40.3524818,27.222395 40.3689189,27.1622069 C40.3783116,27.1390576 40.3853561,27.1159084 40.3924006,27.0927591 C40.4111859,27.0372009 40.4299712,26.9793277 40.4464083,26.9214545 C40.4769344,26.8242276 40.5074606,26.7270007 40.5356385,26.6297738 C40.5497275,26.5742156 40.5661646,26.5209723 40.5826018,26.465414 C40.6107797,26.3589274 40.6413058,26.2547557 40.6671356,26.1482691 C40.6812246,26.0973407 40.6953136,26.0440974 40.7070544,25.9908541 C40.716447,25.963075 40.7234915,25.932981 40.730536,25.9028869 C40.7516695,25.8126048 40.7728029,25.7200077 40.7939364,25.6297256 C40.7939364,25.6250957 40.7962846,25.6204659 40.7962846,25.615836 C40.817418,25.5278688 40.8362033,25.4375867 40.8526405,25.3473046 C40.9136927,25.0579388 40.9653523,24.7639431 41.0099674,24.4699474 C41.0311009,24.3403116 41.047538,24.2129906 41.0639751,24.0833547 L41.1672943,23.3171141 L40.4933716,23.3217439 Z" id="Fill-4" fill="#FEFEFE"></path>
                </g>
            </g>
        </g>
    </g>
</svg>