<?xml version="1.0" encoding="UTF-8"?>
<svg width="49px" height="49px" viewBox="0 0 49 49" version="1.1" xmlns="http://www.w3.org/2000/svg" xmlns:xlink="http://www.w3.org/1999/xlink">
    <title>8F3D6B49-6A6D-44A3-9B0E-8872FF932031</title>
    <defs>
        <polygon id="path-1" points="0 0 47.9998837 0 47.9998837 48 0 48"></polygon>
    </defs>
    <g id="Clime-it" stroke="none" stroke-width="1" fill="none" fill-rule="evenodd">
        <g id="Cards-Copy-27" transform="translate(-897.000000, -123.000000)">
            <g id="Group-2-Copy-7" transform="translate(892.000000, 118.000000)">
                <g id="Group-6-Copy-13" transform="translate(5.044150, 5.030862)">
                    <g id="Group-3">
                        <mask id="mask-2" fill="white">
                            <use xlink:href="#path-1"></use>
                        </mask>
                        <g id="Clip-2"></g>
                        <path d="M47.9998837,24 C47.9998837,37.2547902 37.254726,48 24,48 C10.7450414,48 -0.000116302172,37.2547902 -0.000116302172,24 C-0.000116302172,10.7452098 10.7450414,0 24,0 C37.254726,0 47.9998837,10.7452098 47.9998837,24" id="Fill-1" fill-opacity="0.5" fill="#DEDEE6" mask="url(#mask-2)"></path>
                    </g>
                    <path d="M22.4271882,37.6140825 C22.2839503,37.5955631 22.1407124,37.5770436 21.9974744,37.5562093 C21.8871108,37.5376899 21.7790953,37.5214854 21.6687317,37.5006511 C21.4409599,37.4612973 21.2178844,37.4173137 20.9948089,37.3687003 C20.8844453,37.345551 20.7764298,37.3200868 20.6684143,37.2923077 C20.5322209,37.2598987 20.3960274,37.2251748 20.2621821,37.1904509 C20.217567,37.1788763 20.172952,37.1673017 20.130685,37.1534121 C20.0884181,37.1418375 20.0484993,37.1302628 20.0062324,37.1186882 C19.9780544,37.1117434 19.9522247,37.1047986 19.9240467,37.0955389 C19.841861,37.0723897 19.7620235,37.0469255 19.6821859,37.0214613 C19.6117411,37.000627 19.5436443,36.9797926 19.4755476,36.9566434 C19.4097991,36.935809 19.3463987,36.9149747 19.2829983,36.8918254 C19.1444567,36.8478418 19.0082632,36.7969134 18.8720698,36.745985 C18.7992767,36.7182059 18.7264837,36.6927417 18.6536906,36.6649626 C18.6278608,36.653388 18.6020311,36.6441283 18.5762013,36.6325537 C18.4987119,36.6024596 18.4212225,36.5723656 18.3437331,36.5399566 C18.2638956,36.5075476 18.1840581,36.4751387 18.1065687,36.4404148 C17.9022785,36.3524476 17.6979884,36.2598505 17.4983945,36.1626236 C17.4091644,36.1209549 17.3199342,36.0769713 17.2330521,36.0329877 C17.2213113,36.0260429 17.2095705,36.0214131 17.1978297,36.0144683 C17.1039032,35.9658548 17.0076285,35.9172414 16.913702,35.8686279 C16.812731,35.8130697 16.71176,35.7575115 16.610789,35.7019532 C16.5920037,35.6903786 16.5708702,35.678804 16.5520849,35.6672293 C16.5145143,35.646395 16.4745956,35.6255606 16.437025,35.6024114 C16.3971062,35.5792621 16.3595356,35.5561129 16.321965,35.5352785 C16.2256903,35.4774054 16.1317638,35.4218471 16.0378373,35.363974 C15.8758141,35.2644321 15.7137908,35.1602604 15.5564639,35.0537738 C15.4414039,34.9750663 15.326344,34.8986737 15.2136322,34.8176513 C15.211284,34.8176513 15.211284,34.8176513 15.2089358,34.8153364 C15.1197056,34.7528334 15.0304755,34.6903304 14.9412453,34.6208826 C14.8520151,34.5583796 14.7627849,34.4912467 14.6759029,34.4217989 C14.5890208,34.356981 14.5021388,34.2875332 14.417605,34.2180854 C14.403516,34.2088257 14.3870789,34.1949361 14.3729899,34.1833615 C14.215663,34.0560405 14.0630324,33.9264046 13.9104018,33.7921389 C13.8282161,33.7203762 13.7460304,33.6462985 13.6638447,33.5722209 C13.581659,33.5004582 13.5018215,33.4240656 13.4219839,33.347673 C13.3421464,33.2712804 13.264657,33.1948879 13.1848195,33.1161804 C13.1073301,33.0397878 13.0298408,32.9610803 12.9546996,32.8823728 C12.9429587,32.8731131 12.9335661,32.8638534 12.9218253,32.8522788 L12.9218253,32.8499638 C12.8560767,32.780516 12.7903282,32.7110682 12.7269278,32.6416204 C12.6611792,32.5721727 12.5977788,32.5027249 12.5343784,32.4309621 C12.4498446,32.3383651 12.370007,32.2434531 12.2878213,32.1485411 C12.2784287,32.1392814 12.2713842,32.1277068 12.2619915,32.1184471 C12.1281462,31.9610321 11.9966491,31.7989872 11.8698483,31.6369424 C11.7336549,31.4633229 11.6021578,31.2873885 11.475357,31.1091391 C11.4683125,31.0998794 11.461268,31.0906197 11.4542235,31.08136 C11.3978676,31.0003376 11.3415117,30.9193152 11.2851558,30.8382927 C11.2006219,30.7156016 11.1207844,30.5929105 11.0409469,30.4702194 C10.9963318,30.4007716 10.9517167,30.3313238 10.9071016,30.2595611 C10.7709082,30.0396431 10.6370629,29.8127803 10.5126103,29.5859175 C10.4773878,29.5234145 10.4445135,29.4632264 10.4116393,29.4007234 C10.3576315,29.3011816 10.3059719,29.2039547 10.2566605,29.1067278 C10.2096973,29.0141307 10.1650822,28.9215336 10.1204671,28.8289366 C10.0147997,28.6113335 9.9161769,28.3937304 9.81990223,28.1714975 C9.75180551,28.0117675 9.68840511,27.8497227 9.62500472,27.6876778 C9.61091574,27.6529539 9.59917493,27.620545 9.58508595,27.5858211 C9.49585577,27.3520135 9.41367007,27.115891 9.33852886,26.8774536 C9.33148437,26.8589342 9.32443988,26.8380998 9.31974356,26.8172655 C9.29626193,26.7408729 9.27043214,26.6667953 9.24695051,26.5904027 C9.22581704,26.5140101 9.20233542,26.4399325 9.18120195,26.3635399 C9.17415746,26.3450205 9.16946114,26.3265011 9.16476481,26.3079817 C9.11310523,26.1227876 9.06379381,25.9352785 9.01917872,25.7454545 C9.01448239,25.7269351 9.00978607,25.7084157 9.00508974,25.6875814 C9.00508974,25.6871184 9.00485493,25.6864239 9.00485493,25.6859609 L22.7589836,37.6511213 C22.7587488,37.6511213 22.758514,37.6511213 22.7582792,37.6511213 C22.7347976,37.6511213 22.7136641,37.6488064 22.6901825,37.6441765 C22.6033004,37.6349168 22.5140703,37.6256571 22.4271882,37.6140825 L22.4271882,37.6140825 Z M13.9122803,28.4110924 L9.65811381,24.7106824 C11.1231326,24.8588377 12.5458844,25.2060767 13.9122803,25.7521678 L13.9122803,28.4110924 Z M12.2009393,19.1085604 C12.2009393,17.8585001 13.2317828,16.8422474 14.4974425,16.8422474 C15.7654504,16.8422474 16.7962939,17.8585001 16.7962939,19.1085604 C16.7962939,20.3563058 15.7654504,21.3725585 14.4974425,21.3725585 C13.2317828,21.3725585 12.2009393,20.3563058 12.2009393,19.1085604 L12.2009393,19.1085604 Z M15.0868314,26.2732578 C16.5051217,26.9746805 17.8177447,27.8913914 18.9659963,28.9794068 C18.9662311,28.9796383 18.9662311,28.9796383 18.9664659,28.9798698 L18.9664659,32.8073692 L15.0863617,29.4322064 L15.0863617,26.2730263 C15.0863617,26.2730263 15.0865965,26.2732578 15.0868314,26.2732578 L15.0868314,26.2732578 Z M20.4171609,30.5489269 C21.8730218,32.3591994 22.8921245,34.4472631 23.4181129,36.6788522 L23.4181129,36.6797782 L20.1405473,33.8287147 L20.1405473,30.2183554 C20.2365872,30.327157 20.3281655,30.438042 20.4171609,30.5489269 L20.4171609,30.5489269 Z M22.1148826,12.5249096 C22.1148826,11.2771642 23.1480742,10.2609115 24.4137339,10.2609115 C25.6817419,10.2609115 26.7102372,11.2771642 26.7102372,12.5249096 C26.7102372,13.7749699 25.6817419,14.7912226 24.4137339,14.7912226 C23.1480742,14.7912226 22.1148826,13.7749699 22.1148826,12.5249096 L22.1148826,12.5249096 Z M28.5089298,30.4285508 L28.5089298,33.9854353 L25.411938,36.6800096 C25.9076351,34.5669448 26.8443173,32.5881456 28.1731426,30.8498674 C28.2811581,30.7086569 28.3938699,30.5674463 28.5089298,30.4285508 L28.5089298,30.4285508 Z M33.8791781,26.2061249 C33.879413,26.2058934 33.8798826,26.2058934 33.8803522,26.2056619 L33.8803522,29.3122932 L29.6830112,32.9640897 L29.6830112,29.1483964 L29.6830112,29.1483964 C30.9087522,27.9492645 32.334087,26.9515312 33.8791781,26.2061249 L33.8791781,26.2061249 Z M32.1697156,19.1085604 C32.1697156,17.8585001 33.2005591,16.8422474 34.4662188,16.8422474 C35.7342267,16.8422474 36.762722,17.8585001 36.762722,19.1085604 C36.762722,20.3563058 35.7342267,21.3725585 34.4662188,21.3725585 C33.2005591,21.3725585 32.1697156,20.3563058 32.1697156,19.1085604 L32.1697156,19.1085604 Z M39.1688845,24.7106824 L35.0544336,28.2907162 L35.0544336,25.6963781 C36.3736315,25.1829274 37.7512986,24.8542079 39.1688845,24.7106824 L39.1688845,24.7106824 Z M26.0809295,37.6418616 C26.0802251,37.6418616 26.0795206,37.6418616 26.0788162,37.6420931 L39.8230826,25.6852665 C39.8228478,25.6859609 39.822613,25.6868869 39.8223782,25.6875814 C39.7754149,25.8959248 39.7214072,26.1042681 39.6627031,26.3079817 C39.6086953,26.5001206 39.5523394,26.6876296 39.4912872,26.8774536 C39.4325831,27.0603328 39.3691827,27.240897 39.3057823,27.4191464 C37.2746215,32.9425609 32.1509303,36.9774777 26.0809295,37.6418616 L26.0809295,37.6418616 Z M40.7052874,23.4698818 C38.7544337,23.4814565 36.857353,23.8148059 35.0544336,24.4578925 L35.0544336,22.4788618 C36.6880505,22.2052375 37.9368034,20.7979937 37.9368034,19.1085604 C37.9368034,17.2195804 36.3799715,15.6847842 34.4662188,15.6847842 C32.5524662,15.6847842 30.9956342,17.2195804 30.9956342,19.1085604 C30.9956342,20.7984567 32.2448568,22.205932 33.8791781,22.4790933 C33.879413,22.4790933 33.8798826,22.4790933 33.8803522,22.4793248 L33.8803522,24.9278225 C33.8798826,24.928054 33.879413,24.928054 33.8791781,24.9282855 C31.6390308,25.9144442 29.6102182,27.398312 27.9946822,29.2317338 C27.8890149,29.35211 27.7833475,29.4748011 27.6823765,29.5974922 C27.5931464,29.7039788 27.5039162,29.8104654 27.4193823,29.9192669 C27.3982489,29.9447311 27.3747672,29.9725102 27.3536338,30.0026043 C27.2644036,30.1160357 27.1775215,30.231782 27.0906395,30.3475283 C27.0718542,30.3729925 27.0530689,30.3984567 27.0342836,30.4239209 C27.0178465,30.4447552 27.0014093,30.4655896 26.9873204,30.4864239 C26.9427053,30.546612 26.8980902,30.609115 26.8558232,30.671618 C26.7525041,30.8151435 26.6538812,30.9632988 26.5576066,31.1114541 C26.5435176,31.1322884 26.5317768,31.1508078 26.5176878,31.1716422 C26.4331539,31.2989631 26.3533164,31.4262841 26.2734789,31.5559199 C26.2685477,31.5640222 26.2640862,31.5718929 26.2591551,31.5799952 C25.7756684,32.3506342 25.3499465,33.1509043 25.0007746,33.9750181 C25.0007746,33.9752496 25.0005398,33.9752496 25.0005398,33.9754811 L25.0005398,15.9000723 C25.0005398,15.9000723 25.0007746,15.9000723 25.0007746,15.9000723 C26.6350959,15.6245961 27.8843185,14.2171208 27.8843185,12.5249096 C27.8843185,10.6382445 26.3274866,9.10344828 24.4137339,9.10344828 C22.4999813,9.10344828 20.9408012,10.6382445 20.9408012,12.5249096 C20.9408012,14.2171208 22.192372,15.6245961 23.8264584,15.9000723 L23.8264584,33.9745551 C23.4932541,33.1930359 23.0914835,32.4318881 22.6382881,31.6962045 C22.625608,31.6749072 22.6138672,31.6533783 22.6009523,31.6323125 C22.5375519,31.5281408 22.4718033,31.4239691 22.4060548,31.3221124 C22.3896176,31.2943333 22.3708323,31.2688691 22.3543952,31.2410899 C22.279254,31.1207138 22.1994164,31.0026525 22.1195789,30.8845913 C22.1125344,30.8753316 22.1054899,30.8637569 22.0984454,30.8544972 C22.0960973,30.8475524 22.091401,30.8429226 22.0867046,30.8359778 C21.9199851,30.5905956 21.7415247,30.3475283 21.558368,30.1114058 C21.5560198,30.1090909 21.5536717,30.106776 21.5536717,30.1044611 C21.5513235,30.1021461 21.5489753,30.0975163 21.5466272,30.0952014 C21.4879231,30.0188088 21.4268709,29.9424162 21.3658187,29.8660236 C21.3352925,29.8289848 21.3047664,29.7896311 21.2742403,29.7525922 C21.2578032,29.7317579 21.241366,29.7132385 21.2249289,29.6924041 C21.2037954,29.66694 21.182662,29.6414758 21.1615285,29.6160116 C21.0957799,29.5349891 21.0300314,29.4585966 20.9619347,29.3798891 C19.3581395,27.5186882 17.3340231,26.0070412 15.0868314,24.9907885 C15.0865965,24.9907885 15.0863617,24.990557 15.0863617,24.990557 L15.0863617,22.4790933 C15.0863617,22.4790933 15.0865965,22.4790933 15.0868314,22.4790933 C16.7235008,22.2036171 17.9703753,20.7984567 17.9703753,19.1085604 C17.9703753,17.2195804 16.4135433,15.6847842 14.4974425,15.6847842 C12.5836898,15.6847842 11.0268579,17.2195804 11.0268579,19.1085604 C11.0268579,20.7982252 12.2758457,22.205469 13.9122803,22.4811768 L13.9122803,24.5113673 C12.0619281,23.8310104 10.1202323,23.4814565 8.12218053,23.4698818 L7.44825782,23.465252 L7.54922881,24.2268628 C7.56566595,24.3564987 7.58445126,24.4861346 7.60323656,24.6157704 C7.62437002,24.7662407 7.65019981,24.9143959 7.67602961,25.0648662 C7.69481491,25.1713528 7.71594837,25.2755245 7.73708184,25.3820111 C7.75351898,25.4653484 7.76995612,25.5463709 7.78874142,25.6297082 C7.79813407,25.6736918 7.80752672,25.7176754 7.81691937,25.7593441 L7.81691937,25.761659 C7.83570467,25.8519412 7.85683814,25.9422233 7.88031977,26.0325054 C7.88736426,26.0672293 7.89675691,26.0996383 7.90614956,26.1343622 C7.92493486,26.2176995 7.94606833,26.3010369 7.96954995,26.3843742 C8.00007607,26.5024355 8.03060219,26.6158669 8.06582463,26.7316132 C8.0799136,26.7802267 8.09400258,26.8288401 8.10809156,26.8751387 C8.11043972,26.8797685 8.11043972,26.8867133 8.11278788,26.8913431 C8.12922502,26.9399566 8.143314,26.990885 8.15740298,27.0418134 C8.16444747,27.0626477 8.17149195,27.085797 8.17853644,27.1066313 C8.18792909,27.1367253 8.19732174,27.1668194 8.2067144,27.1992284 C8.23254419,27.273306 8.25602581,27.3496986 8.2818556,27.4237762 C8.30064091,27.4839643 8.31942621,27.5418375 8.34055967,27.5997106 C8.34055967,27.5997106 8.34290784,27.5997106 8.34290784,27.6020256 C8.35699681,27.6390644 8.36873763,27.6784181 8.3828266,27.715457 C8.39456742,27.7501809 8.40865639,27.7825898 8.42039721,27.8173137 C8.43213802,27.8497227 8.44387884,27.8821317 8.45561965,27.9145406 C8.46031598,27.9284302 8.4650123,27.9446347 8.47205679,27.9585242 C8.49084209,28.0071377 8.50727923,28.0534362 8.52606453,28.0997347 C8.55189432,28.1714975 8.58007228,28.2409453 8.60825023,28.3103931 C8.61059839,28.3173378 8.61294656,28.3242826 8.61764288,28.3312274 C8.63877635,28.3821558 8.65990981,28.4330842 8.68104328,28.4840125 C8.69513225,28.5164215 8.70687307,28.5488305 8.72096205,28.5812395 C8.7303547,28.6067036 8.74209551,28.6321678 8.75383632,28.6599469 C8.75853265,28.6715216 8.76322898,28.6830962 8.77027346,28.6946708 C8.77496979,28.7062455 8.77966612,28.7178201 8.78436244,28.7293947 C8.82428121,28.8196769 8.86419998,28.9122739 8.90646691,29.004871 C8.91116323,29.0141307 8.91585956,29.0233904 8.92055588,29.0326501 C8.92525221,29.0442247 8.92994853,29.0534844 8.93464486,29.0627442 C8.96282281,29.1252472 8.99334893,29.1877502 9.02152688,29.2479383 C9.03796402,29.2826622 9.052053,29.3150711 9.06849014,29.3474801 C9.12484604,29.4655414 9.18355011,29.5812877 9.24460235,29.697034 C9.25164684,29.7109236 9.25869132,29.7248131 9.26573581,29.7387027 C9.31269907,29.8312997 9.36201049,29.9238968 9.41367007,30.0164939 C9.41601823,30.0234386 9.42071456,30.0303834 9.42541088,30.0396431 C9.47941863,30.1414999 9.53577453,30.2410417 9.59213044,30.3405836 C9.77059081,30.6530986 9.95844383,30.9586689 10.1556895,31.2549795 C10.2167417,31.3475766 10.277794,31.4378587 10.3411944,31.5281408 C10.4351209,31.6670364 10.5337437,31.8036171 10.6323666,31.9378828 L10.7662118,32.1184471 C10.7803008,32.1369665 10.7943898,32.153171 10.8061306,32.1716904 C10.8178714,32.1855799 10.8272641,32.1994695 10.8366567,32.2110441 C10.9376277,32.34068 11.0385987,32.4703159 11.1419179,32.5976368 C11.1771403,32.6393055 11.2123628,32.6809742 11.245237,32.7226429 C11.2616742,32.7457921 11.2804595,32.7666265 11.2992448,32.7897757 C11.3415117,32.8407041 11.3861268,32.8916325 11.4307419,32.9425609 C11.4424827,32.9564504 11.4542235,32.97034 11.4683125,32.9842296 C11.4917941,33.0143236 11.5176239,33.0421027 11.5411056,33.0721968 C11.5411056,33.0721968 11.5458019,33.0745117 11.5458019,33.0768266 C11.5810243,33.1161804 11.6185949,33.157849 11.6538174,33.1972028 C11.6702545,33.2157222 11.6866916,33.2342416 11.7031288,33.252761 C11.7336549,33.2874849 11.7665292,33.3198939 11.7947071,33.3546178 C11.9896046,33.5652761 12.1891985,33.7713046 12.3934886,33.9727032 C12.4521927,34.0328912 12.5108968,34.0907644 12.571949,34.1486376 C12.5742972,34.1486376 12.5766453,34.1509525 12.5789935,34.1532674 C12.600127,34.1741018 12.6236086,34.197251 12.6470902,34.2180854 C12.6635274,34.2319749 12.6799645,34.2481794 12.6964016,34.2643839 C12.7457131,34.3106824 12.7950245,34.356981 12.8443359,34.4032795 C12.8466841,34.4032795 12.8490322,34.4055944 12.8513804,34.4079093 C12.8678175,34.4241138 12.8866028,34.4403183 12.9053881,34.4565228 C12.9805293,34.5259706 13.0556705,34.5931034 13.1331599,34.6602363 C13.2176938,34.731999 13.2998795,34.8060767 13.3867615,34.8778394 C13.4313766,34.9148782 13.4759917,34.951917 13.5206068,34.9889559 C13.5769627,35.0375693 13.6356668,35.0838679 13.6920227,35.1301664 C13.6990672,35.1347962 13.7061116,35.1394261 13.710808,35.1440559 C13.8939647,35.2898963 14.0818177,35.4334218 14.2720189,35.5746323 C14.2767152,35.5792621 14.2814115,35.581577 14.2861079,35.5862069 C14.3377674,35.6232457 14.389427,35.6602845 14.4434348,35.6973234 C14.4927462,35.7320473 14.5420576,35.7690861 14.5937172,35.80381 C14.6477249,35.8431637 14.7040808,35.8825175 14.7580886,35.9195563 C14.8050518,35.9519653 14.8520151,35.9820593 14.8989783,36.0144683 C14.9036747,36.0167832 14.908371,36.0190981 14.9130673,36.023728 C15.0116902,36.0885459 15.110313,36.1533639 15.211284,36.2181818 C15.2887734,36.2667953 15.3662627,36.3154087 15.4461003,36.3640222 C15.4766264,36.3825416 15.5071525,36.401061 15.5376786,36.4195804 C15.6081235,36.463564 15.6809165,36.5052327 15.7513614,36.5469014 C15.7842357,36.5677357 15.8194582,36.5885701 15.8523324,36.6070895 C15.8546806,36.6070895 15.8593769,36.6094044 15.8617251,36.6117193 C15.9274736,36.6487581 15.9932222,36.685797 16.0589708,36.7228358 C16.1012377,36.745985 16.1458528,36.7714492 16.1904679,36.7945985 C16.2773499,36.843212 16.3665801,36.8918254 16.4581584,36.9404389 C16.4839882,36.9520135 16.509818,36.9659031 16.537996,36.9821075 C16.6413151,37.0330359 16.7446343,37.0862792 16.8479535,37.1372076 C16.8549979,37.1418375 16.8643906,37.1441524 16.8714351,37.1487823 C16.9653616,37.1950808 17.0592881,37.2413793 17.1555628,37.2853629 C17.1673036,37.2899928 17.1766962,37.2969375 17.1884371,37.3015674 C17.1978297,37.3061973 17.2072224,37.3108271 17.216615,37.315457 C17.2236595,37.3177719 17.2330521,37.3224017 17.2400966,37.3247167 C17.2823636,37.3432361 17.3246305,37.3640704 17.3692456,37.3825898 C17.404468,37.3987943 17.4396905,37.4149988 17.4772611,37.4312033 C17.4960464,37.440463 17.5124835,37.4474078 17.5312688,37.4566675 C17.533617,37.4589824 17.5383133,37.4589824 17.5406615,37.4589824 C17.5758839,37.4751869 17.6087582,37.4890764 17.6416325,37.502966 C17.7191218,37.5376899 17.7989594,37.5724138 17.8787969,37.6048228 C17.9022785,37.6140825 17.9257602,37.6233422 17.9492418,37.6326019 C17.9797679,37.6441765 18.010294,37.6557511 18.0431683,37.6696407 C18.1089169,37.6974198 18.1746654,37.722884 18.240414,37.7483482 C18.2662438,37.7576079 18.2944217,37.7691825 18.3202515,37.7784422 C18.4071335,37.8131661 18.4963637,37.8455751 18.5855939,37.8779841 C18.6067274,37.8849289 18.630209,37.8941886 18.6513425,37.9011333 C18.7476171,37.9358572 18.84624,37.9705811 18.9448628,38.0029901 C18.9800853,38.0145647 19.0153077,38.0261394 19.0505301,38.037714 C19.0810563,38.0469737 19.1115824,38.0562334 19.1421085,38.0678081 C19.1961162,38.0863275 19.2524721,38.102532 19.3064799,38.1210514 C19.3111762,38.1210514 19.3158725,38.1210514 19.3182207,38.1233663 C19.3299615,38.1256812 19.3393542,38.1303111 19.3487468,38.132626 C19.4567623,38.165035 19.5647778,38.1974439 19.6727933,38.2298529 C19.6774896,38.2321678 19.6821859,38.2321678 19.6868823,38.2344828 C19.8042904,38.2668917 19.9240467,38.2993007 20.0414548,38.3317097 C20.1659075,38.3641186 20.2903601,38.3942127 20.4148127,38.4243067 C20.419509,38.4243067 20.4218572,38.4266217 20.4265535,38.4266217 C20.5463098,38.4567157 20.6660661,38.4821799 20.7881706,38.509959 C20.7928669,38.509959 20.7975633,38.5122739 20.8022596,38.5122739 C20.9220159,38.5377381 21.0441204,38.5632023 21.1662248,38.5863516 C21.1709211,38.5863516 21.1756175,38.5886665 21.1803138,38.5886665 C21.3024183,38.6118158 21.4245227,38.634965 21.5466272,38.6557994 C21.6898651,38.6789486 21.8354512,38.7020979 21.9786891,38.7229322 C22.0960973,38.7391367 22.2135054,38.7553412 22.3309136,38.7692308 C22.3731805,38.7738606 22.4130993,38.7784905 22.453018,38.7831203 C22.4976331,38.7877502 22.5422482,38.79238 22.5868633,38.7970099 C22.6267821,38.8016397 22.6667008,38.8062696 22.7066196,38.8108994 C22.7770645,38.8178442 22.8498575,38.824789 22.9226506,38.8317338 L22.9273469,38.8317338 L22.9296951,38.8317338 L22.957873,38.8340487 C23.0095326,38.8386786 23.0611922,38.8433084 23.1128518,38.8456233 C23.2420007,38.854883 23.3734978,38.8641428 23.504995,38.8710875 C23.5449137,38.8734025 23.5871806,38.8757174 23.6270994,38.8757174 C23.6693663,38.8780323 23.7092851,38.8803472 23.751552,38.8826622 C23.7961671,38.8849771 23.8407822,38.8849771 23.8853973,38.887292 C24.0215908,38.8919219 24.1601324,38.8942368 24.298674,38.8942368 C24.3385927,38.8965517 24.3761633,38.8965517 24.4137339,38.8965517 L24.4771343,38.8965517 L24.4794825,38.8965517 C24.5945425,38.8942368 24.7119506,38.8919219 24.8270106,38.8896069 C24.876322,38.8896069 24.9232853,38.887292 24.9702485,38.8849771 C25.005471,38.8849771 25.0406934,38.8826622 25.0759159,38.8826622 C25.3529991,38.8710875 25.6300823,38.854883 25.9024692,38.8294189 L25.9048173,38.8317338 C25.9776104,38.824789 26.0504034,38.8178442 26.1208483,38.8108994 C26.376798,38.7854353 26.6327478,38.7553412 26.8840012,38.7183024 C27.0178465,38.699783 27.1493436,38.6789486 27.2808407,38.6557994 C27.4076415,38.634965 27.5344423,38.6118158 27.6612431,38.5863516 C27.7880439,38.5632023 27.9124965,38.5377381 28.0392973,38.509959 C28.1637499,38.4821799 28.2882025,38.4544008 28.4126552,38.4243067 C28.5371078,38.3942127 28.6615604,38.3641186 28.7860131,38.3317097 C29.0325702,38.2668917 29.2767791,38.195129 29.520988,38.1210514 C29.6407443,38.0816976 29.7628488,38.0446588 29.8826051,38.0029901 C30.2583111,37.8756692 30.6269727,37.7367736 30.9909379,37.5863034 C31.0919089,37.5446347 31.1928799,37.502966 31.2938509,37.4566675 C31.4817039,37.375645 31.6672088,37.2899928 31.8503655,37.2020256 C31.9231585,37.1673017 31.9936034,37.1325778 32.0640483,37.0978539 C32.275383,36.9913673 32.4820213,36.8825657 32.6863114,36.7691343 C32.7825861,36.715891 32.8788608,36.6626477 32.9727873,36.6070895 C33.0761065,36.5492163 33.1747293,36.4913431 33.2757003,36.4288401 C33.343797,36.3871714 33.4142419,36.3455028 33.4799905,36.3038341 C33.5480872,36.2621654 33.6138357,36.2204967 33.6795843,36.1765131 C34.4756115,35.6649144 35.2246754,35.0908126 35.9197316,34.4588377 C36.0066136,34.3801302 36.0934957,34.3014227 36.1780295,34.2204003 C36.2625634,34.1393779 36.3470972,34.0583554 36.4316311,33.9750181 C36.516165,33.8939957 36.5983507,33.8106583 36.6805363,33.725006 C36.762722,33.6416687 36.8425596,33.5560164 36.9223971,33.4703641 C36.9998865,33.3870268 37.0773759,33.3036894 37.1525171,33.2203521 C37.1619097,33.2134073 37.166606,33.2064625 37.1713024,33.1995177 C37.2464436,33.1161804 37.3215848,33.0305281 37.3943778,32.9448758 C37.5517047,32.7619966 37.7019872,32.5791174 37.8499214,32.3916084 C37.9203663,32.3036412 37.988463,32.2133591 38.0589079,32.1230769 C38.204494,31.9286231 38.3477319,31.7318544 38.4862735,31.5304558 C38.5473258,31.4401736 38.608378,31.3498915 38.6694302,31.2572944 C38.7351788,31.1577526 38.7985792,31.0605257 38.8619796,30.9586689 C39.1766334,30.4609597 39.4654574,29.9447311 39.7261035,29.412298 C39.7777631,29.3058114 39.8294226,29.1970099 39.8787341,29.0905233 C39.9797051,28.8752351 40.0759797,28.657632 40.1652099,28.4353991 C40.1980842,28.3613214 40.2286103,28.2849289 40.2567883,28.2085363 C40.2896626,28.1275139 40.3225368,28.0441765 40.3507148,27.9608392 L40.3530629,27.9585242 C40.3648038,27.9238003 40.3788927,27.8890764 40.3929817,27.8520376 C40.4070707,27.8149988 40.4188115,27.7802749 40.4329005,27.7432361 C40.4634266,27.6575838 40.4939527,27.5719315 40.5244788,27.4839643 C40.5432641,27.4284061 40.5643976,27.3705329 40.5808347,27.3103448 C40.5902274,27.2871956 40.5972719,27.2640463 40.6043164,27.240897 C40.6231017,27.1853388 40.641887,27.1274656 40.6583241,27.0695925 C40.6888502,26.9723656 40.7193763,26.8751387 40.7475543,26.7779117 C40.7616433,26.7223535 40.7780804,26.6691102 40.7945176,26.613552 C40.8226955,26.5070653 40.8532216,26.4028937 40.8790514,26.296407 C40.8931404,26.2454787 40.9072294,26.1922354 40.9189702,26.138992 C40.9283628,26.1112129 40.9354073,26.0811189 40.9424518,26.0510248 C40.9635853,25.9607427 40.9847187,25.8681456 41.0058522,25.7778635 C41.0058522,25.7732337 41.0082004,25.7686038 41.0082004,25.763974 C41.0293338,25.6760068 41.0481191,25.5857246 41.0645563,25.4954425 C41.1256085,25.2060767 41.1772681,24.912081 41.2218832,24.6180854 C41.2430166,24.4884495 41.2594538,24.3611285 41.2758909,24.2314926 L41.3792101,23.465252 L40.7052874,23.4698818 Z" id="Fill-4" fill="#FEFEFE"></path>
                </g>
            </g>
        </g>
    </g>
</svg>