<?xml version="1.0" encoding="UTF-8"?>
<svg width="48px" height="48px" viewBox="0 0 48 48" version="1.1" xmlns="http://www.w3.org/2000/svg" xmlns:xlink="http://www.w3.org/1999/xlink">
    <title>EC3ADDC9-5E17-47C8-BC57-37EDDE04FD22</title>
    <defs>
        <polygon id="path-1" points="0 0 48 0 48 48 0 48"></polygon>
    </defs>
    <g id="Climate-Vocabulary-" stroke="none" stroke-width="1" fill="none" fill-rule="evenodd">
        <g id="Cards-Copy-13" transform="translate(-24.000000, -1643.000000)">
            <g id="Group-6-Copy-5" transform="translate(24.000000, 1643.000000)">
                <g id="Group-3">
                    <mask id="mask-2" fill="white">
                        <use xlink:href="#path-1"></use>
                    </mask>
                    <g id="Clip-2"></g>
                    <path d="M48,24 C48,37.2547902 37.2548163,48 24.0000582,48 C10.7450674,48 -0.000116302454,37.2547902 -0.000116302454,24 C-0.000116302454,10.7452098 10.7450674,0 24.0000582,0 C37.2548163,0 48,10.7452098 48,24" id="Fill-1" fill-opacity="0.5" fill="#DEDEE6" mask="url(#mask-2)"></path>
                </g>
                <path d="M30.6706591,36.7589264 C32.295441,34.4606931 32.4652492,31.6639205 31.1807731,29.1072448 C32.319568,29.6814591 33.5059276,29.9701716 34.675743,29.9701716 C36.1224446,29.9701716 37.5424915,29.5278155 38.8136404,28.6492951 C38.4310549,32.9513165 34.9838794,36.3858247 30.6706591,36.7589264 M20.9637879,28.5931119 C22.3649929,29.510158 23.869829,29.9701716 25.3480106,29.9701716 C26.4507299,29.9701716 27.5366752,29.7085188 28.5546053,29.198055 C27.3197619,31.7301936 27.5058845,34.487982 29.1118244,36.7589264 C24.7795323,36.3844488 21.3213273,32.9217343 20.9637879,28.5931119 M28.6478964,27.8320027 C26.604913,29.1400374 24.1304008,29.1395787 21.9107157,27.8324614 C24.1304008,26.525344 26.604913,26.5241974 28.6478964,27.8320027 M29.0874676,18.9484202 C27.5270244,21.3645235 27.3317105,24.0840156 28.5029046,26.434763 C26.1334023,25.270282 23.3941822,25.4824019 20.9670049,27.0695176 C21.3431565,22.7691014 24.7806812,19.3323 29.0874676,18.9484202 M29.8912418,26.5546968 C28.5803408,24.5160523 28.5812599,22.0462884 29.8907822,19.8310685 C31.2005342,22.0462884 31.2016831,24.5160523 29.8912418,26.5546968 M29.8907822,29.1400374 C31.2005342,31.3552573 31.2016831,33.8250212 29.8912418,35.8636657 C28.5803408,33.8250212 28.5812599,31.3552573 29.8907822,29.1400374 M37.9756288,27.8320027 C35.9326454,29.1400374 33.4581332,29.1395787 31.2382183,27.8324614 C33.4579034,26.525344 35.9326454,26.5241974 37.9756288,27.8320027 M38.8101937,27.0098947 C36.5263997,25.4342449 33.7623633,25.2755563 31.2306356,26.5324529 C32.4558282,24.1594615 32.2763692,21.3980041 30.6940968,18.9484202 C34.9808923,19.3304654 38.407847,22.7369968 38.8101937,27.0098947 M17.711237,32.5809665 C17.711237,34.936759 15.7907269,36.8534058 13.4299563,36.8534058 C11.0694154,36.8534058 9.14890531,34.936759 9.14890531,32.5809665 C9.14890531,30.4200951 10.7658746,28.6334721 12.8550441,28.3516392 L12.8555036,32.7002123 L14.0044089,32.699983 L14.0039494,28.3514099 C16.0933486,28.6327841 17.711237,30.4196365 17.711237,32.5809665 M30.4654646,17.7814167 L30.4654646,11 L25.7896498,11 L25.7896498,12.1465942 L29.3165593,12.1465942 L29.3165593,14.206336 C29.0465666,14.1928062 28.7761143,14.1845507 28.5063513,14.1845507 C25.1752152,14.1845507 22.0717922,15.219008 19.5074356,17.0090708 L17.3284218,13.7470104 L21.2432017,13.7470104 L21.2432017,12.6004162 L15.1818071,12.6004162 L18.5890007,17.7009258 C15.7440813,20.0129183 13.697881,23.3199253 12.9575264,27.1837184 C10.184069,27.4235859 8,29.75186 8,32.5809665 C8,35.568991 10.435909,38 13.4299563,38 C16.4242333,38 18.8601423,35.568991 18.8601423,32.5809665 C18.8601423,29.8268473 16.7900447,27.5476474 14.1215973,27.2073382 C15.5379677,20.2848904 21.4819442,15.3311449 28.5063513,15.3311449 C28.7761143,15.3311449 29.0467963,15.3407763 29.3165593,15.3552234 L29.3165593,17.7814167 C24.0086168,18.0797605 19.7817942,22.4822235 19.7817942,27.8526414 C19.7817942,33.4156871 24.3167532,37.9415237 29.891012,37.9415237 C35.4652707,37.9415237 40,33.4156871 40,27.8526414 C40,22.4822235 35.7734072,18.0797605 30.4654646,17.7814167" id="Fill-4" fill="#FEFEFE"></path>
            </g>
        </g>
    </g>
</svg>