<?xml version="1.0" encoding="UTF-8"?>
<svg width="48px" height="48px" viewBox="0 0 48 48" version="1.1" xmlns="http://www.w3.org/2000/svg" xmlns:xlink="http://www.w3.org/1999/xlink">
    <title>15FD401A-A85F-4C01-8475-E7ED98CBB94D</title>
    <defs>
        <polygon id="path-1" points="0 0 48 0 48 48 0 48"></polygon>
    </defs>
    <g id="Clime-it" stroke="none" stroke-width="1" fill="none" fill-rule="evenodd">
        <g id="Cards-Copy-27" transform="translate(-1124.000000, -50.000000)">
            <g id="Group-2-Copy-10" transform="translate(1119.000000, 45.000000)">
                <g id="Group-8-Copy-9" transform="translate(5.000000, 5.000000)">
                    <g id="Group-3">
                        <mask id="mask-2" fill="white">
                            <use xlink:href="#path-1"></use>
                        </mask>
                        <g id="Clip-2"></g>
                        <path d="M48,24 C48,37.2547902 37.2548163,48 24.0000582,48 C10.7450674,48 -0.000116302454,37.2547902 -0.000116302454,24 C-0.000116302454,10.7452098 10.7450674,0 24.0000582,0 C37.2548163,0 48,10.7452098 48,24" id="Fill-1" fill="#B88750" mask="url(#mask-2)"></path>
                    </g>
                    <path d="M30.5209688,38.5270639 C30.3335183,38.716673 30.0718585,38.8252225 29.7988746,38.8252225 L29.7935739,38.8252225 L28.7837984,38.8252225 C28.5199702,38.8233428 28.24795,38.7178478 28.0566444,38.5242445 C27.8756992,38.3433287 27.7766733,38.0945109 27.785588,37.8414638 L28.3120398,22.9638462 L28.3120398,21.3736674 L26.2076783,20.8607595 C26.2296038,20.4190431 26.3809135,17.7485389 26.9278451,15.0235249 C27.2707013,13.3149285 27.6976453,11.9545361 28.1971119,10.9804106 C28.7924722,9.81973039 29.489027,9.21331023 30.2684647,9.17665717 L30.2684647,22.9638462 L30.7949165,37.8412288 C30.8040722,38.0942759 30.7052872,38.3433287 30.5209688,38.5270639 L30.5209688,38.5270639 Z M31.4731599,22.9535082 L31.4731599,9.10123645 C31.4731599,8.49411143 30.966706,8 30.3441196,8 C29.0401575,8 27.9552091,8.82610356 27.1196325,10.4550501 C26.5714962,11.5240976 26.1091342,12.9852859 25.7457982,14.7979676 C25.1424869,17.8032835 25.0065972,20.7458663 25.0010556,20.8696878 C24.9779255,21.3901142 25.3371656,21.8595553 25.8554254,21.9857265 L27.1075856,22.2909337 L27.1078265,22.9434051 L26.5818566,37.8008165 C26.5613768,38.3726982 26.7847273,38.9356516 27.1923961,39.3425945 C27.6056066,39.7605803 28.1836193,40 28.7758474,40 L28.7869306,40 L29.7906826,40 L29.8017658,40 C30.3968852,40 30.974898,39.7605803 31.3854581,39.345179 C31.7960182,38.9354166 32.0196096,38.3719933 31.9986479,37.8001116 L31.4731599,22.9535082 Z" id="Fill-4" fill="#FEFEFE"></path>
                    <path d="M21.8630671,16.7084442 C21.862613,17.0075559 21.794506,17.3073753 21.6662378,17.5748774 L20.890272,19.1874387 L21.376329,37.8684752 C21.3845019,38.1128598 21.2943736,38.3534702 21.1270574,38.5313332 C20.9563358,38.7153293 20.7177343,38.8205374 20.4686897,38.8205374 L20.4643763,38.8205374 L19.5326724,38.8205374 L19.528359,38.8205374 C19.2822657,38.8205374 19.0436642,38.7153293 18.8702183,38.5285025 C18.7053994,38.3529984 18.6152711,38.1116804 18.623671,37.8616343 L19.109728,19.1874387 L18.3339892,17.5755851 C18.205494,17.3073753 18.137387,17.0075559 18.1369329,16.7091519 L18.1369329,15.2503925 L21.8630671,15.2503925 L21.8630671,16.7084442 Z M21.8610239,14.0709299 L20.5799311,14.0709299 L20.5799311,8 L19.440728,8 L19.440728,14.0709299 L18.1389761,14.0709299 L18.1389761,8 L17,8 L17,15.0100181 L17.0018162,15.0100181 L17.0018162,16.7098596 C17.0022702,17.1901367 17.1116955,17.6713575 17.3182867,18.1023331 L17.9675735,19.4506948 L17.4892353,37.8253068 C17.4699383,38.3909771 17.6774377,38.9476835 18.0556586,39.3498802 C18.439328,39.7633998 18.9755572,40 19.5256347,40 L19.5356237,40 L20.4614249,40 C21.0221726,40 21.5581747,39.7659946 21.9413901,39.3529468 C22.3216542,38.9490988 22.5293806,38.3938078 22.5109917,37.8328554 L22.0324265,19.4506948 L22.6817133,18.1016254 C22.8883045,17.6713575 22.9977298,17.1901367 22.9981838,16.7091519 L22.9981838,15.0100181 L23,15.0100181 L23,8 L21.8610239,8 L21.8610239,14.0709299 Z" id="Fill-6" fill="#FEFEFE"></path>
                </g>
            </g>
        </g>
    </g>
</svg>