<svg id="Layer_1" data-name="Layer 1" xmlns="http://www.w3.org/2000/svg" viewBox="0 0 450 450"><defs><style>.cls-1{fill:#ededed;}.cls-2{fill:#fff;}</style></defs><circle class="cls-1" cx="225" cy="225" r="225"/><path class="cls-2" d="M270.7,375.64a20,20,0,0,1-14.33-6.1,19.6,19.6,0,0,1-5.52-14.31l4.76-137.9v-6.05l-11.33-2.84a10.25,10.25,0,0,1-7.73-10.35,426.34,426.34,0,0,1,6.74-56.36c3.29-16.82,7.47-30.38,12.43-40.31,7.56-15.11,17.38-22.78,29.19-22.78a10.23,10.23,0,0,1,10.22,10.22V217.43l4.75,137.79a19.59,19.59,0,0,1-5.55,14.34A20,20,0,0,1,280,375.64H270.7ZM247.46,198l19,4.76v14.76L261.74,355.6a8.69,8.69,0,0,0,2.45,6.34,9.33,9.33,0,0,0,6.58,2.79H280A9.1,9.1,0,0,0,286.5,362,8.75,8.75,0,0,0,289,355.6l-4.77-138.08v-128c-7,.34-13.36,6-18.74,16.74-4.53,9-8.39,21.67-11.49,37.52A415.07,415.07,0,0,0,247.46,198Z"/><path class="cls-2" d="M179.83,375.64a19.73,19.73,0,0,1-14.12-6,19.31,19.31,0,0,1-5.44-14.1l4.59-169.86-6.23-12.46a29,29,0,0,1-3-12.88V135.94h57.59v24.39a29,29,0,0,1-3,12.87l-6.24,12.47,4.6,169.93a19.26,19.26,0,0,1-5.48,14,19.75,19.75,0,0,1-14.21,6h-9Zm-13.34-228.8v13.49a18.13,18.13,0,0,0,1.89,8l7.45,14.9-4.66,172.63a8.41,8.41,0,0,0,2.36,6.16,8.8,8.8,0,0,0,6.32,2.7h9a8.79,8.79,0,0,0,6.32-2.67,8.42,8.42,0,0,0,2.4-6.13l-4.67-172.69,7.45-14.91a18.07,18.07,0,0,0,1.89-8V146.84Z"/><rect class="cls-2" x="155.57" y="79.82" width="10.94" height="64.8"/><rect class="cls-2" x="179.01" y="79.82" width="10.94" height="64.8"/><rect class="cls-2" x="202.26" y="79.82" width="10.94" height="64.8"/></svg>