<svg id="Layer_1" data-name="Layer 1" xmlns="http://www.w3.org/2000/svg" viewBox="0 0 450 450"><defs><style>.cls-1{fill:#ededed;}.cls-2{fill:#fff;}</style></defs><circle class="cls-1" cx="225" cy="225" r="225"/><path class="cls-2" d="M280.91,352.82a95.94,95.94,0,1,1,95.93-95.94A96.05,96.05,0,0,1,280.91,352.82Zm0-181a85,85,0,1,0,85,85A85.13,85.13,0,0,0,280.91,171.85Z"/><path class="cls-2" d="M326.32,277c-15.49,0-31.29-5.31-45.73-15.94l-6-4.39,6-4.39c28.82-21.22,63.09-21.26,89.43-.11l.38.3,5.13,4.2-5.14,4.2c-.15.12-.3.25-.46.36C356.81,271.76,341.71,277,326.32,277Zm-32.63-20.33c21.07,12.43,44.55,12.43,63.94,0C338.24,244.25,314.76,244.26,293.69,256.69Z"/><path class="cls-2" d="M237.79,277c-15.48,0-31.28-5.31-45.72-15.94l-6-4.39,6-4.39c28.82-21.22,63.08-21.26,89.43-.11l.38.3,5.13,4.2-5.14,4.2-.46.36C268.28,271.76,253.19,277,237.79,277Zm-32.62-20.33c21.07,12.43,44.55,12.43,63.94,0C249.72,244.25,226.24,244.26,205.17,256.69Z"/><path class="cls-2" d="M280.86,351l-4.2-5.25-.31-.41c-21.09-26.33-21-60.55.16-89.35l4.39-6,4.4,6c21.21,28.83,21.25,63.09.11,89.43l-.31.38Zm0-81.91c-12.42,21.07-12.43,44.55,0,63.94C293.35,313.67,293.33,290.19,280.9,269.12Z"/><path class="cls-2" d="M280.86,262.51l-4.2-5.25-.31-.41c-21.09-26.33-21-60.55.16-89.35l4.39-6,4.4,6c21.21,28.82,21.25,63.09.11,89.43l-.31.38Zm0-81.91c-12.42,21.07-12.43,44.55,0,63.94C293.35,225.15,293.33,201.67,280.9,180.6Z"/><path class="cls-2" d="M124.69,353.38a51.54,51.54,0,1,1,51.53-51.54A51.59,51.59,0,0,1,124.69,353.38Zm0-92.16a40.63,40.63,0,1,0,40.63,40.62A40.67,40.67,0,0,0,124.69,261.22Z"/><path class="cls-2" d="M119.24,303V256l.07-.42C131.09,181,193.53,126.91,267.77,126.91c4.58,0,9.21.2,13.75.61l-1,10.86c-4.21-.38-8.51-.57-12.77-.57-68.7,0-126.52,50-137.64,119V303Z"/><polygon class="cls-2" points="286.36 166.4 275.45 166.4 275.45 107.53 241.99 107.53 241.99 96.62 286.36 96.62 286.36 166.4"/><polygon class="cls-2" points="175.66 163.36 141.31 111.84 198.84 111.84 198.84 122.75 161.69 122.75 184.73 157.31 175.66 163.36"/></svg>